<svg width="10" height="10" viewBox="0 0 10 10" fill="none" xmlns="http://www.w3.org/2000/svg">
<path d="M5.95514 4.98122L9.77901 1.15736C9.90005 1.0266 9.96574 0.854051 9.96231 0.675902C9.95887 0.497753 9.88657 0.327858 9.76058 0.201864C9.63459 0.0758707 9.46469 0.00356267 9.28654 0.000128178C9.10839 -0.00330632 8.93584 0.0623935 8.80508 0.183437L4.98122 4.0073L1.15736 0.183437C1.0266 0.0623935 0.854051 -0.00330632 0.675902 0.000128178C0.497753 0.00356267 0.327858 0.0758707 0.201864 0.201864C0.0758707 0.327858 0.00356267 0.497753 0.000128178 0.675902C-0.00330632 0.854051 0.0623935 1.0266 0.183437 1.15736L4.0073 4.98122L0.183437 8.80508C0.0623935 8.93584 -0.00330632 9.10839 0.000128178 9.28654C0.00356267 9.46469 0.0758707 9.63459 0.201864 9.76058C0.327858 9.88657 0.497753 9.95887 0.675902 9.96231C0.854051 9.96574 1.0266 9.90005 1.15736 9.77901L4.98122 5.95514L8.80508 9.77901C8.86808 9.84706 8.94418 9.9017 9.02879 9.93965C9.11341 9.9776 9.20482 9.99808 9.29754 9.99987C9.39026 10.0017 9.4824 9.98471 9.56842 9.95005C9.65444 9.91539 9.73257 9.86372 9.79815 9.79815C9.86372 9.73257 9.91539 9.65444 9.95005 9.56842C9.98471 9.4824 10.0017 9.39026 9.99987 9.29754C9.99808 9.20482 9.9776 9.11341 9.93965 9.02879C9.9017 8.94418 9.84706 8.86808 9.77901 8.80508L5.95514 4.98122Z" fill="#707070"/>
</svg>
