<svg width="16" height="16" viewBox="0 0 16 16" fill="none" xmlns="http://www.w3.org/2000/svg">
<g clip-path="url(#clip0_7287_4201)">
<path fill-rule="evenodd" clip-rule="evenodd" d="M6.88328 5.21732C7.05651 5.30058 7.16669 5.47577 7.16669 5.66797V10.3346C7.16669 10.6108 6.94283 10.8346 6.66669 10.8346C6.39054 10.8346 6.16669 10.6108 6.16669 10.3346V6.70829L5.31237 7.39174C5.09674 7.56425 4.78209 7.52929 4.60958 7.31365C4.43708 7.09802 4.47204 6.78338 4.68767 6.61087L6.35434 5.27754C6.50442 5.15747 6.71005 5.13406 6.88328 5.21732ZM9.50002 6.16797C9.13183 6.16797 8.83335 6.46645 8.83335 6.83464V9.16797C8.83335 9.53616 9.13183 9.83464 9.50002 9.83464C9.86821 9.83464 10.1667 9.53616 10.1667 9.16797V6.83464C10.1667 6.46645 9.86821 6.16797 9.50002 6.16797ZM7.83335 6.83464C7.83335 5.91417 8.57954 5.16797 9.50002 5.16797C10.4205 5.16797 11.1667 5.91417 11.1667 6.83464V9.16797C11.1667 10.0884 10.4205 10.8346 9.50002 10.8346C8.57954 10.8346 7.83335 10.0884 7.83335 9.16797V6.83464Z" fill="#559EE6"/>
<path fill-rule="evenodd" clip-rule="evenodd" d="M7.54933 1.11544C7.63259 0.942204 7.80778 0.832031 7.99998 0.832031C8.4902 0.832031 8.96941 0.881324 9.43278 0.975382C12.7042 1.63945 15.1666 4.53094 15.1666 7.9987C15.1666 11.9567 11.958 15.1654 7.99998 15.1654C4.04194 15.1654 0.833313 11.9567 0.833313 7.9987C0.833313 5.05913 2.60304 2.53402 5.13313 1.42858C5.38617 1.31802 5.68093 1.43353 5.79149 1.68657C5.90205 1.93961 5.78654 2.23437 5.5335 2.34493C3.3545 3.29698 1.83331 5.47075 1.83331 7.9987C1.83331 11.4045 4.59422 14.1654 7.99998 14.1654C11.4057 14.1654 14.1666 11.4045 14.1666 7.9987C14.1666 5.23172 12.3438 2.88951 9.83331 2.10899V2.9987C9.83331 3.21104 9.69919 3.40022 9.49882 3.47051C9.29844 3.5408 9.07553 3.47686 8.94288 3.31105L7.60955 1.64438C7.48948 1.49429 7.46607 1.28867 7.54933 1.11544Z" fill="#559EE6"/>
</g>
<defs>
<clipPath id="clip0_7287_4201">
<rect width="16" height="16" fill="white"/>
</clipPath>
</defs>
</svg>
