<svg width="27" height="20" viewBox="0 0 27 20" fill="none" xmlns="http://www.w3.org/2000/svg">
<path d="M22.6267 10.9019C22.2901 10.9005 21.9576 10.9752 21.654 11.1204C21.3504 11.2656 21.0836 11.4776 20.8735 11.7405L20.1672 11.8179C20.1367 11.8213 20.1074 11.8321 20.082 11.8493C20.0566 11.8666 20.0358 11.8899 20.0215 11.9171C20.0073 11.9443 19.9999 11.9746 20 12.0053C20.0002 12.0361 20.0078 12.0663 20.0224 12.0933L20.4032 12.801C20.3312 13.2557 20.4003 13.7215 20.6012 14.1357C20.8021 14.5498 21.1252 14.8925 21.5268 15.1174C21.9285 15.3423 22.3894 15.4387 22.8475 15.3936C23.3056 15.3484 23.7389 15.1639 24.0889 14.865C24.439 14.566 24.6889 14.1669 24.8051 13.7215C24.9213 13.276 24.8982 12.8057 24.7389 12.3738C24.5795 11.942 24.2916 11.5693 23.9139 11.3061C23.5363 11.0429 23.087 10.9018 22.6267 10.9019ZM23.5647 12.6843H23.3677C23.3119 13.1272 23.1262 13.5437 22.834 13.8812C23.0146 13.9447 23.2028 13.9841 23.3936 13.9984C23.4418 14.0027 23.4864 14.0253 23.5182 14.0616C23.55 14.098 23.5666 14.1452 23.5645 14.1934C23.5624 14.2417 23.5418 14.2873 23.5069 14.3207C23.4721 14.3541 23.4256 14.3728 23.3773 14.3729C23.3718 14.3729 23.3662 14.3727 23.3606 14.3722C23.0656 14.3529 22.7769 14.2777 22.5101 14.1504C22.2628 14.3007 21.9779 14.3778 21.6886 14.3729C21.6388 14.3729 21.5911 14.3531 21.5559 14.3179C21.5207 14.2828 21.5009 14.235 21.5009 14.1853C21.5009 14.1355 21.5207 14.0878 21.5559 14.0526C21.5911 14.0174 21.6388 13.9977 21.6886 13.9977C21.8513 13.9996 22.0128 13.9695 22.1638 13.9089C22.0461 13.7983 21.9517 13.6652 21.8862 13.5176C21.8208 13.3699 21.7855 13.2106 21.7826 13.0491C21.7854 12.9996 21.8076 12.9531 21.8445 12.9199C21.8815 12.8867 21.9301 12.8695 21.9796 12.872C22.0292 12.8746 22.0758 12.8967 22.1091 12.9335C22.1424 12.9703 22.1598 13.0189 22.1574 13.0685C22.1615 13.192 22.1938 13.3129 22.252 13.4219C22.3102 13.531 22.3926 13.6252 22.4928 13.6974C22.8354 13.3813 22.9516 12.9005 22.9877 12.6843H21.6886C21.6388 12.6843 21.5911 12.6645 21.5559 12.6293C21.5207 12.5942 21.5009 12.5464 21.5009 12.4967C21.5009 12.4469 21.5207 12.3992 21.5559 12.364C21.5911 12.3288 21.6388 12.309 21.6886 12.309H22.439V12.1214C22.439 12.0717 22.4588 12.0239 22.494 11.9888C22.5292 11.9536 22.5769 11.9338 22.6266 11.9338C22.6764 11.9338 22.7241 11.9536 22.7593 11.9888C22.7945 12.0239 22.8143 12.0717 22.8143 12.1214V12.309H23.5647C23.6145 12.309 23.6622 12.3288 23.6974 12.364C23.7326 12.3992 23.7524 12.4469 23.7524 12.4967C23.7524 12.5464 23.7326 12.5942 23.6974 12.6293C23.6622 12.6645 23.6145 12.6843 23.5647 12.6843Z" fill="#0066D4"/>
<path d="M22.5079 5.88672L22.0993 6.80607H22.9164L22.5079 5.88672Z" fill="#0066D4"/>
<path d="M19.5201 9.90927C19.5178 9.95069 19.5253 9.99209 19.5422 10.03C19.5591 10.0679 19.5848 10.1012 19.6172 10.1271C19.6496 10.1531 19.6878 10.1708 19.7285 10.179C19.7691 10.1872 19.8112 10.1855 19.8511 10.1741L21.3759 9.73734C22.1649 10.0071 23.0242 9.98738 23.8 9.68162C24.5758 9.37587 25.2175 8.80407 25.6103 8.06852C26.0031 7.33296 26.1214 6.48164 25.944 5.66686C25.7666 4.85208 25.3051 4.12699 24.642 3.62132C23.979 3.11566 23.1576 2.8624 22.3249 2.90685C21.4923 2.95131 20.7026 3.29058 20.0971 3.86398C19.4917 4.43737 19.11 5.20747 19.0204 6.03651C18.9307 6.86555 19.139 7.69944 19.6079 8.38899L19.5201 9.90927ZM21.2311 7.48002L22.2704 5.14137C22.2908 5.09544 22.3241 5.05642 22.3663 5.02904C22.4084 5.00165 22.4576 4.98708 22.5079 4.98708C22.5581 4.98708 22.6073 5.00165 22.6495 5.02904C22.6916 5.05642 22.7249 5.09544 22.7453 5.14137L23.7847 7.48002C23.7986 7.5112 23.8061 7.54481 23.807 7.57892C23.8079 7.61304 23.802 7.64699 23.7898 7.67884C23.7775 7.71069 23.7591 7.73982 23.7356 7.76456C23.7121 7.7893 23.684 7.80917 23.6528 7.82303C23.6216 7.83689 23.588 7.84448 23.5539 7.84535C23.5198 7.84623 23.4858 7.84038 23.454 7.82813C23.4221 7.81588 23.393 7.79748 23.3683 7.77398C23.3435 7.75048 23.3237 7.72233 23.3098 7.69115L23.1474 7.32573H21.8684L21.706 7.69115C21.6921 7.72233 21.6722 7.75048 21.6475 7.77398C21.6227 7.79748 21.5936 7.81588 21.5618 7.82813C21.5299 7.84038 21.496 7.84623 21.4618 7.84535C21.4277 7.84448 21.3941 7.83689 21.3629 7.82303C21.3318 7.80917 21.3036 7.7893 21.2801 7.76456C21.2566 7.73982 21.2382 7.71069 21.226 7.67884C21.2137 7.64699 21.2079 7.61304 21.2087 7.57892C21.2096 7.54481 21.2172 7.5112 21.2311 7.48002Z" fill="#0066D4"/>
<g clip-path="url(#clip0_4108_1083)">
<path d="M17.901 10.5725C17.7758 10.8353 17.5253 11.016 17.1516 11.1105L17.3939 11.8455C17.4411 12.0529 17.3323 12.2643 17.1352 12.3465L16.9257 12.4265L17.1044 12.5949C17.2112 12.7099 17.2461 12.8741 17.1968 13.022C17.0674 13.3833 16.971 13.7262 17.0448 14.1163C17.1187 14.3668 17.1372 14.6296 17.0982 14.8862C17.0346 15.1675 16.8621 15.4139 16.6198 15.572C16.2195 15.8307 15.6261 15.9559 14.8521 15.9374C14.1951 15.9251 13.0104 16.0791 12.4684 17.2966C12.3442 17.58 12.2543 17.9664 12.2024 18.4402C12.1667 18.7668 11.8697 19.0009 11.5448 18.9521C10.6741 18.8215 9.65096 18.7461 8.55507 18.7461C7.29375 18.7461 6.12715 18.8453 5.17976 19.0145C4.77227 19.0873 4.4274 18.7238 4.51524 18.3193C5.02986 15.9493 4.49634 13.6889 2.89458 11.4431C1.48609 9.46385 1.14324 6.90767 1.99527 4.76624C2.68926 3.03135 4.21062 1.68858 6.28638 0.986406C8.73577 0.15694 11.5793 0.374573 13.5319 1.54076C15.2223 2.55216 17.1875 5.40643 16.4266 7.58212C16.4279 7.59255 16.4296 7.60558 16.431 7.61601L17.8517 9.70407C17.8579 9.71434 17.8641 9.72254 17.8702 9.73281C18.0037 9.99562 18.0139 10.3015 17.901 10.5725Z" fill="#0066D4"/>
</g>
<defs>
<clipPath id="clip0_4108_1083">
<rect width="19.5122" height="19.5122" fill="white"/>
</clipPath>
</defs>
</svg>
