<svg width="17" height="18" viewBox="0 0 17 18" fill="none" xmlns="http://www.w3.org/2000/svg">
<path d="M1.41663 4.71761C1.41663 3.38196 1.41663 2.71414 1.83156 2.29921C2.24649 1.88428 2.91431 1.88428 4.24996 1.88428C5.58561 1.88428 6.25343 1.88428 6.66836 2.29921C7.08329 2.71414 7.08329 3.38196 7.08329 4.71761V13.2176C7.08329 14.5533 7.08329 15.2211 6.66836 15.636C6.25343 16.0509 5.58561 16.0509 4.24996 16.0509C2.91431 16.0509 2.24649 16.0509 1.83156 15.636C1.41663 15.2211 1.41663 14.5533 1.41663 13.2176V4.71761Z" fill="white"/>
<path d="M9.91663 4.71761C9.91663 3.38196 9.91663 2.71414 10.3316 2.29921C10.7465 1.88428 11.4143 1.88428 12.75 1.88428C14.0856 1.88428 14.7534 1.88428 15.1684 2.29921C15.5833 2.71414 15.5833 3.38196 15.5833 4.71761V13.2176C15.5833 14.5533 15.5833 15.2211 15.1684 15.636C14.7534 16.0509 14.0856 16.0509 12.75 16.0509C11.4143 16.0509 10.7465 16.0509 10.3316 15.636C9.91663 15.2211 9.91663 14.5533 9.91663 13.2176V4.71761Z" fill="white"/>
</svg>
