<svg width="336" height="173" viewBox="0 0 336 173" fill="none" xmlns="http://www.w3.org/2000/svg">
<g clip-path="url(#clip0_4613_2314)">
<rect width="336" height="173" fill="#E5F1FB"/>
<g filter="url(#filter0_d_4613_2314)">
<rect x="40.5374" y="36.3169" width="241.006" height="163" rx="15.5" transform="rotate(-4.46919 40.5374 36.3169)" fill="white" fill-opacity="0.5" stroke="white"/>
<rect x="62.7202" y="146.451" width="212.27" height="37.4595" rx="10" transform="rotate(-4.46919 62.7202 146.451)" fill="#E4F0FD"/>
<rect x="79.0776" y="154.807" width="6" height="6" rx="3" transform="rotate(-4.46919 79.0776 154.807)" fill="#A5C9F0" fill-opacity="0.3"/>
<rect x="90.3086" y="154.43" width="154" height="5" rx="2.5" transform="rotate(-4.46919 90.3086 154.43)" fill="#A5C9F0" fill-opacity="0.3"/>
<rect x="80.1685" y="168.764" width="6" height="6" rx="3" transform="rotate(-4.46919 80.1685 168.764)" fill="#A5C9F0" fill-opacity="0.3"/>
<rect x="91.3994" y="168.387" width="141" height="5" rx="2.5" transform="rotate(-4.46919 91.3994 168.387)" fill="#A5C9F0" fill-opacity="0.3"/>
<rect x="55.0122" y="47.8203" width="212.27" height="91.2474" rx="10" transform="rotate(-4.46919 55.0122 47.8203)" fill="url(#paint0_linear_4613_2314)"/>
<rect x="55.0122" y="47.8203" width="212.27" height="91.2474" rx="10" transform="rotate(-4.46919 55.0122 47.8203)" fill="url(#paint1_linear_4613_2314)"/>
<path d="M73.2153 66.8841C73.0471 66.957 72.8926 67.071 72.7727 67.2227L71.4208 68.9221L69.8162 70.94L73.5063 70.6515L76.0019 67.7364L74.1577 66.8913C73.8514 66.7501 73.5074 66.7541 73.2134 66.8825L73.2153 66.8841Z" fill="url(#paint2_linear_4613_2314)"/>
<path d="M84.1843 62.1996L80.4942 62.488L80.491 62.4918L80.7853 66.2572C80.9536 66.1843 81.1063 66.0704 81.228 65.9186L84.1845 62.2013L84.1843 62.1996Z" fill="url(#paint3_linear_4613_2314)"/>
<path d="M82.5946 68.3201C82.1688 68.8067 81.6178 69.1309 81.0216 69.2812L81.0825 70.0601L86.76 69.6164L86.325 64.0504L82.5929 68.3203L82.5946 68.3201Z" fill="url(#paint4_linear_4613_2314)"/>
<path d="M72.9789 63.8585C72.3845 64.0086 71.8319 64.3347 71.4059 64.8196L67.6738 69.0894L67.2388 63.5234L72.918 63.0795" fill="url(#paint5_linear_4613_2314)"/>
<path d="M67.2407 63.5234L67.6758 69.0894L71.4079 64.8196C71.8337 64.3329 72.3847 64.0087 72.9809 63.8585L72.92 63.0795L67.2407 63.5234Z" fill="url(#paint6_linear_4613_2314)"/>
<path d="M67.6748 69.0894L71.4069 64.8196C71.8327 64.3329 72.3837 64.0087 72.9799 63.8585L72.919 63.0795L67.2397 63.5234L67.6748 69.0894Z" fill="url(#paint7_linear_4613_2314)"/>
<path d="M80.4927 62.488L80.4895 62.4918L80.7838 66.2572C80.9521 66.1843 81.1048 66.0704 81.2265 65.9186L84.183 62.2013L80.4929 62.4898L80.4927 62.488Z" fill="url(#paint8_linear_4613_2314)"/>
<path d="M80.8313 66.2455L80.4168 61.437L80.4121 61.4444L80.0493 56.8023L74.4853 57.2371L72.6364 59.3901L72.9249 63.0804L72.9161 63.081L72.977 63.86C73.6456 63.6917 74.3665 63.7426 75.0261 64.0442L77.9946 65.4042L78.0402 65.4252C78.2682 65.5321 79.3444 66.0384 79.8388 66.2493C79.9992 66.3228 80.1687 66.3553 80.3354 66.3528C80.6324 66.3542 80.8297 66.2474 80.8297 66.2474L80.8313 66.2455Z" fill="url(#paint9_linear_4613_2314)"/>
<path opacity="0.3" d="M74.4878 57.2378L74.5116 59.6556L72.6389 59.3907L74.4878 57.2378Z" fill="#1F324F"/>
<path d="M74.4936 57.2359L74.6496 59.2321L72.6448 59.3888L74.4936 57.2359Z" fill="url(#paint10_linear_4613_2314)"/>
<path d="M78.9722 69.0976L76.0019 67.7378L74.0196 66.8349C73.5788 66.7025 73.2135 66.8839 73.2135 66.8839L73.5079 70.651L73.9524 76.3375L79.5164 75.9027L81.3652 73.7497L81.0767 70.0594L81.0855 70.0588L81.0246 69.2798C80.3561 69.4498 79.6334 69.3974 78.9738 69.0957L78.9722 69.0976Z" fill="url(#paint11_linear_4613_2314)"/>
<path opacity="0.1" d="M79.2738 59.8288L73.9089 60.2481C73.7575 60.2599 73.6444 60.3923 73.6562 60.5437L73.6563 60.5455C73.6682 60.6969 73.8005 60.8101 73.9519 60.7982L79.3168 60.3789C79.4683 60.3671 79.5814 60.2347 79.5696 60.0833L79.5695 60.0815C79.5576 59.9301 79.4253 59.8169 79.2738 59.8288Z" fill="#1F324F"/>
<path opacity="0.1" d="M77.9508 61.1309L74.0022 61.4395C73.8508 61.4513 73.7376 61.5837 73.7495 61.7351L73.7496 61.7369C73.7614 61.8883 73.8938 62.0015 74.0452 61.9896L77.9938 61.681C78.1452 61.6692 78.2584 61.5368 78.2465 61.3854L78.2464 61.3836C78.2346 61.2322 78.1022 61.119 77.9508 61.1309Z" fill="#1F324F"/>
<path opacity="0.1" d="M76.9157 62.5028L74.1023 62.7227C73.9509 62.7345 73.8377 62.8669 73.8496 63.0183L73.8497 63.0201C73.8615 63.1715 73.9939 63.2847 74.1453 63.2728L76.9587 63.0529C77.1102 63.0411 77.2233 62.9088 77.2115 62.7573L77.2114 62.7556C77.1995 62.6041 77.0672 62.491 76.9157 62.5028Z" fill="#1F324F"/>
<rect x="70.1455" y="100.707" width="133.593" height="6.74714" rx="3.37357" transform="rotate(-4.46919 70.1455 100.707)" fill="#A5C9F0"/>
<rect x="71.2563" y="114.916" width="93.1106" height="6.74714" rx="3.37357" transform="rotate(-4.46919 71.2563 114.916)" fill="#A5C9F0"/>
<rect x="49.5903" y="158.482" width="242" height="44" transform="rotate(-4.46919 49.5903 158.482)" fill="url(#paint12_linear_4613_2314)"/>
<rect x="219.689" y="89.0176" width="40" height="24" rx="12" transform="rotate(-4.46919 219.689 89.0176)" fill="#0066D4"/>
<g filter="url(#filter1_d_4613_2314)">
<rect x="239.94" y="91.4473" width="16" height="16" rx="8" transform="rotate(-4.46919 239.94 91.4473)" fill="#F2F2F2"/>
<rect x="240.477" y="91.9068" width="15" height="15" rx="7.5" transform="rotate(-4.46919 240.477 91.9068)" stroke="white"/>
</g>
<g filter="url(#filter2_d_4613_2314)">
<path d="M251.213 117.47L264.957 143.861C265.446 144.8 266.843 144.607 267.058 143.57L269.237 133.016C269.319 132.619 269.608 132.297 269.994 132.173L280.25 128.879C281.258 128.556 281.302 127.145 280.316 126.759L252.622 115.903C251.653 115.522 250.733 116.547 251.213 117.47Z" fill="#434343"/>
<path d="M251.657 117.239C251.406 116.757 251.841 116.227 252.339 116.337L252.44 116.369L280.133 127.224C280.648 127.426 280.657 128.128 280.196 128.363L280.097 128.403L269.842 131.697C269.283 131.875 268.866 132.342 268.747 132.915L266.568 143.468C266.449 144.044 265.673 144.153 265.4 143.63L251.657 117.239Z" stroke="white"/>
</g>
</g>
</g>
<defs>
<filter id="filter0_d_4613_2314" x="18" y="-1" width="298.283" height="229.35" filterUnits="userSpaceOnUse" color-interpolation-filters="sRGB">
<feFlood flood-opacity="0" result="BackgroundImageFix"/>
<feColorMatrix in="SourceAlpha" type="matrix" values="0 0 0 0 0 0 0 0 0 0 0 0 0 0 0 0 0 0 127 0" result="hardAlpha"/>
<feMorphology radius="1" operator="erode" in="SourceAlpha" result="effect1_dropShadow_4613_2314"/>
<feOffset dy="4"/>
<feGaussianBlur stdDeviation="11.5"/>
<feComposite in2="hardAlpha" operator="out"/>
<feColorMatrix type="matrix" values="0 0 0 0 0.836222 0 0 0 0 0.885308 0 0 0 0 0.946667 0 0 0 1 0"/>
<feBlend mode="normal" in2="BackgroundImageFix" result="effect1_dropShadow_4613_2314"/>
<feBlend mode="normal" in="SourceGraphic" in2="effect1_dropShadow_4613_2314" result="shape"/>
</filter>
<filter id="filter1_d_4613_2314" x="234.94" y="88.2012" width="25.1982" height="25.1973" filterUnits="userSpaceOnUse" color-interpolation-filters="sRGB">
<feFlood flood-opacity="0" result="BackgroundImageFix"/>
<feColorMatrix in="SourceAlpha" type="matrix" values="0 0 0 0 0 0 0 0 0 0 0 0 0 0 0 0 0 0 127 0" result="hardAlpha"/>
<feOffset dx="-1" dy="2"/>
<feGaussianBlur stdDeviation="2"/>
<feComposite in2="hardAlpha" operator="out"/>
<feColorMatrix type="matrix" values="0 0 0 0 0 0 0 0 0 0 0 0 0 0 0 0 0 0 0.25 0"/>
<feBlend mode="normal" in2="BackgroundImageFix" result="effect1_dropShadow_4613_2314"/>
<feBlend mode="normal" in="SourceGraphic" in2="effect1_dropShadow_4613_2314" result="shape"/>
</filter>
<filter id="filter2_d_4613_2314" x="245.082" y="113.822" width="41.9492" height="40.6445" filterUnits="userSpaceOnUse" color-interpolation-filters="sRGB">
<feFlood flood-opacity="0" result="BackgroundImageFix"/>
<feColorMatrix in="SourceAlpha" type="matrix" values="0 0 0 0 0 0 0 0 0 0 0 0 0 0 0 0 0 0 127 0" result="hardAlpha"/>
<feOffset dy="4"/>
<feGaussianBlur stdDeviation="3"/>
<feComposite in2="hardAlpha" operator="out"/>
<feColorMatrix type="matrix" values="0 0 0 0 0 0 0 0 0 0 0 0 0 0 0 0 0 0 0.1 0"/>
<feBlend mode="normal" in2="BackgroundImageFix" result="effect1_dropShadow_4613_2314"/>
<feBlend mode="normal" in="SourceGraphic" in2="effect1_dropShadow_4613_2314" result="shape"/>
</filter>
<linearGradient id="paint0_linear_4613_2314" x1="161.147" y1="47.8203" x2="161.147" y2="139.068" gradientUnits="userSpaceOnUse">
<stop stop-color="#B3D7FF"/>
<stop offset="1" stop-color="#B2D7FF" stop-opacity="0.2"/>
</linearGradient>
<linearGradient id="paint1_linear_4613_2314" x1="161.147" y1="47.8203" x2="161.147" y2="139.068" gradientUnits="userSpaceOnUse">
<stop stop-color="#B3D7FF"/>
<stop offset="1" stop-color="#B2D7FF" stop-opacity="0.2"/>
</linearGradient>
<linearGradient id="paint2_linear_4613_2314" x1="69.7203" y1="64.3863" x2="74.3703" y2="71.6083" gradientUnits="userSpaceOnUse">
<stop offset="0.02" stop-color="#004AAE"/>
<stop offset="1" stop-color="#24ACF0"/>
</linearGradient>
<linearGradient id="paint3_linear_4613_2314" x1="78.9579" y1="58.7477" x2="83.6079" y2="65.9714" gradientUnits="userSpaceOnUse">
<stop offset="0.02" stop-color="#004AAE"/>
<stop offset="1" stop-color="#24ACF0"/>
</linearGradient>
<linearGradient id="paint4_linear_4613_2314" x1="79.9387" y1="61.2039" x2="86.7788" y2="71.8287" gradientUnits="userSpaceOnUse">
<stop offset="0.02" stop-color="#004AAE"/>
<stop offset="1" stop-color="#24ACF0"/>
</linearGradient>
<linearGradient id="paint5_linear_4613_2314" x1="67.4581" y1="66.3072" x2="73.1356" y2="65.8634" gradientUnits="userSpaceOnUse">
<stop offset="0.02" stop-color="#004AAE"/>
<stop offset="1" stop-color="#24ACF0"/>
</linearGradient>
<linearGradient id="paint6_linear_4613_2314" x1="67.4583" y1="66.3073" x2="80.7553" y2="65.268" gradientUnits="userSpaceOnUse">
<stop offset="0.02" stop-color="#004AAE"/>
<stop offset="1" stop-color="#24ACF0"/>
</linearGradient>
<linearGradient id="paint7_linear_4613_2314" x1="67.9594" y1="62.4568" x2="71.0192" y2="67.2078" gradientUnits="userSpaceOnUse">
<stop offset="0.02" stop-color="#004AAE"/>
<stop offset="1" stop-color="#24ACF0"/>
</linearGradient>
<linearGradient id="paint8_linear_4613_2314" x1="80.9224" y1="61.8025" x2="83.0004" y2="65.0313" gradientUnits="userSpaceOnUse">
<stop offset="0.02" stop-color="#004AAE"/>
<stop offset="1" stop-color="#24ACF0"/>
</linearGradient>
<linearGradient id="paint9_linear_4613_2314" x1="73.892" y1="56.2556" x2="80.776" y2="66.9489" gradientUnits="userSpaceOnUse">
<stop offset="0.02" stop-color="#32ADF1"/>
<stop offset="1" stop-color="#24F9F0"/>
</linearGradient>
<linearGradient id="paint10_linear_4613_2314" x1="74.3222" y1="59.4035" x2="73.4838" y2="58.1864" gradientUnits="userSpaceOnUse">
<stop offset="0.02" stop-color="#004AAE"/>
<stop offset="1" stop-color="#24ACF0"/>
</linearGradient>
<linearGradient id="paint11_linear_4613_2314" x1="72.9222" y1="65.7206" x2="79.7623" y2="76.3453" gradientUnits="userSpaceOnUse">
<stop offset="0.02" stop-color="#32ADF1"/>
<stop offset="1" stop-color="#24F9F0"/>
</linearGradient>
<linearGradient id="paint12_linear_4613_2314" x1="188.267" y1="158.482" x2="188.267" y2="205.905" gradientUnits="userSpaceOnUse">
<stop stop-color="#FCFDF9" stop-opacity="0"/>
<stop offset="0.7" stop-color="#FCFDF9"/>
<stop offset="1" stop-color="#FCFDF9"/>
</linearGradient>
<clipPath id="clip0_4613_2314">
<rect width="336" height="173" fill="white"/>
</clipPath>
</defs>
</svg>
