<svg width="16" height="16" viewBox="0 0 16 16" fill="none" xmlns="http://www.w3.org/2000/svg">
<path fill-rule="evenodd" clip-rule="evenodd" d="M6.87258 1.50001H9.12688C9.27114 1.49992 9.39682 1.49984 9.5155 1.51879C9.98437 1.59366 10.3901 1.8861 10.6094 2.30723C10.6649 2.41382 10.7046 2.53307 10.7501 2.66996L10.8245 2.89323C10.8371 2.93102 10.8407 2.94172 10.8438 2.95014C10.9605 3.27289 11.2632 3.49106 11.6063 3.49976C11.6153 3.49999 11.6264 3.50003 11.6664 3.50003H13.6664C13.9425 3.50003 14.1664 3.72388 14.1664 4.00003C14.1664 4.27617 13.9425 4.50003 13.6664 4.50003H2.33301C2.05687 4.50003 1.83301 4.27617 1.83301 4.00003C1.83301 3.72388 2.05687 3.50003 2.33301 3.50003H4.33306C4.37309 3.50003 4.38414 3.49999 4.39316 3.49976C4.73626 3.49106 5.03894 3.2729 5.15569 2.95016C5.15876 2.94168 5.16229 2.93121 5.17495 2.89323L5.24935 2.66998C5.29488 2.5331 5.33456 2.41382 5.39006 2.30723C5.60936 1.8861 6.01509 1.59366 6.48396 1.51879C6.60264 1.49984 6.72832 1.49992 6.87258 1.50001ZM6.00511 3.50003C6.03945 3.43268 6.06988 3.36269 6.09606 3.29032C6.10401 3.26834 6.1118 3.24495 6.12182 3.21489L6.18836 3.01528C6.24914 2.83294 6.26313 2.79575 6.27701 2.76909C6.35011 2.62872 6.48536 2.53124 6.64165 2.50628C6.67133 2.50154 6.71103 2.50003 6.90324 2.50003H9.09622C9.28843 2.50003 9.32813 2.50154 9.35781 2.50628C9.5141 2.53124 9.64935 2.62872 9.72245 2.76909C9.73633 2.79575 9.75032 2.83294 9.8111 3.01528L9.8776 3.21477L9.90341 3.29033C9.92959 3.3627 9.96001 3.43268 9.99435 3.50003H6.00511Z" fill="white"/>
<path d="M3.94307 5.63343C3.9247 5.3579 3.68645 5.14943 3.41092 5.1678C3.13538 5.18617 2.92691 5.42442 2.94528 5.69995L3.25425 10.3344C3.31125 11.1896 3.35729 11.8804 3.46527 12.4224C3.57753 12.986 3.76848 13.4567 4.16288 13.8256C4.55727 14.1946 5.03964 14.3538 5.60941 14.4284C6.15742 14.5 6.8497 14.5 7.70674 14.5H8.29268C9.14971 14.5 9.84204 14.5 10.3901 14.4284C10.9598 14.3538 11.4422 14.1946 11.8366 13.8256C12.231 13.4567 12.4219 12.986 12.5342 12.4224C12.6422 11.8804 12.6882 11.1896 12.7452 10.3345L13.0542 5.69995C13.0725 5.42442 12.8641 5.18617 12.5885 5.1678C12.313 5.14943 12.0748 5.3579 12.0564 5.63343L11.7498 10.2328C11.6899 11.1314 11.6472 11.7566 11.5535 12.227C11.4626 12.6833 11.3357 12.9249 11.1534 13.0954C10.9711 13.2659 10.7217 13.3765 10.2604 13.4368C9.78475 13.499 9.15808 13.5 8.25752 13.5H7.74194C6.84138 13.5 6.21471 13.499 5.73911 13.4368C5.27777 13.3765 5.02834 13.2659 4.84606 13.0954C4.66379 12.9249 4.5369 12.6833 4.446 12.227C4.35228 11.7566 4.3096 11.1314 4.24969 10.2328L3.94307 5.63343Z" fill="white"/>
<path d="M6.28332 6.83584C6.55809 6.80836 6.80311 7.00883 6.83059 7.28361L7.16392 10.6169C7.1914 10.8917 6.99093 11.1367 6.71615 11.1642C6.44138 11.1917 6.19636 10.9912 6.16888 10.7164L5.83555 7.38311C5.80807 7.10834 6.00854 6.86332 6.28332 6.83584Z" fill="white"/>
<path d="M9.71615 6.83584C9.99093 6.86332 10.1914 7.10834 10.1639 7.38311L9.83059 10.7164C9.80311 10.9912 9.55809 11.1917 9.28332 11.1642C9.00854 11.1367 8.80807 10.8917 8.83555 10.6169L9.16888 7.28361C9.19636 7.00883 9.44138 6.80836 9.71615 6.83584Z" fill="white"/>
</svg>
