<svg width="42" height="41" viewBox="0 0 42 41" fill="none" xmlns="http://www.w3.org/2000/svg">
<path d="M20.8982 1.51758C21.8397 1.5177 22.9673 1.96315 23.5193 3.0791L23.5203 3.08008L27.9187 11.9902L37.7507 13.4189C38.8453 13.578 39.7766 14.3505 40.114 15.4219H40.113C40.447 16.4684 40.1767 17.6234 39.3728 18.4062L32.2576 25.3438L33.9373 35.1328L33.9382 35.1406C34.1196 36.2307 33.6769 37.3351 32.7771 37.9951L32.7693 38.002L32.7605 38.0078C32.2514 38.3702 31.6562 38.5527 31.0544 38.5527C30.6042 38.5527 30.1317 38.4536 29.6853 38.2178V38.2168L20.8992 33.5986L12.1033 38.2188L12.1023 38.2178C11.109 38.7449 9.92042 38.6453 9.02905 38.002C8.11571 37.3426 7.67791 36.2243 7.85815 35.1406L7.85913 35.1328L9.53784 25.3447L2.42358 18.4072L2.42456 18.4062C1.61849 17.6271 1.34285 16.4621 1.68042 15.4131L1.6814 15.4102C2.02826 14.3391 2.9561 13.5776 4.04565 13.4189H4.04663L13.8757 11.9902L18.2712 3.08105L18.2751 3.07324C18.8308 1.96279 19.9563 1.51758 20.8982 1.51758Z" fill="#EFF0F6" stroke="white" stroke-width="2.96448"/>
</svg>
