<svg width="74" height="74" viewBox="0 0 74 74" fill="none" xmlns="http://www.w3.org/2000/svg">
<path d="M37.0005 0.899414C17.0617 0.899414 0.900513 17.0606 0.900513 36.9994C0.900513 56.9382 17.0617 73.0994 37.0005 73.0994C56.9393 73.0994 73.1005 56.9382 73.1005 36.9994C73.1005 17.0606 56.9393 0.899414 37.0005 0.899414ZM52.5828 20.9942L56.9616 24.9969C57.2702 25.2789 57.293 25.7572 57.0128 26.0674L30.9804 54.8791C30.6888 55.2017 30.1865 55.2145 29.879 54.907L17.0201 42.048C16.7233 41.7512 16.7233 41.27 17.0201 40.9732L20.6699 37.3234C20.9667 37.0266 21.4479 37.0266 21.7447 37.3234L30.0202 45.599L52.5827 20.9916L52.5828 20.9942Z" fill="#52B644"/>
</svg>
