<svg width="72" height="66" viewBox="0 0 72 66" fill="none" xmlns="http://www.w3.org/2000/svg">
<path d="M42.3414 5.13184C40.7069 2.21033 38.4546 0.601562 36.0002 0.601562C33.5458 0.601562 31.2935 2.21033 29.6585 5.13184L2.22854 54.1444C0.602626 57.0493 0.408511 59.8442 1.68106 62.015C2.96002 64.1964 5.51525 65.3982 8.8754 65.3982H63.125C66.4852 65.3982 69.0404 64.1964 70.3194 62.0144C71.5919 59.8442 71.3972 57.0493 69.7713 54.1444L42.3414 5.13184ZM35.9989 58.2596C33.7464 58.2596 31.9203 56.4328 31.9203 54.1797C31.9203 51.9265 33.7464 50.0997 35.9989 50.0997C38.2527 50.0997 40.0801 51.9265 40.0801 54.1797C40.0801 56.4328 38.2527 58.2596 35.9989 58.2596ZM40.5204 22.9803L38.9598 41.2672C38.8277 43.5071 37.4963 45.3398 36.0002 45.3398C34.5041 45.3398 33.1727 43.5071 33.0406 41.2672L31.48 22.9803C31.3479 20.7405 33.0764 18.9077 35.3202 18.9077H36.6802C38.924 18.9077 40.6525 20.7405 40.5204 22.9803Z" fill="#DB3535"/>
</svg>
