<svg width="42" height="41" viewBox="0 0 42 41" fill="none" xmlns="http://www.w3.org/2000/svg">
<path d="M20.877 1.51758C21.8185 1.5177 22.9461 1.96315 23.498 3.0791L23.499 3.08008L27.8975 11.9902L37.7295 13.4189C38.824 13.578 39.7554 14.3505 40.0928 15.4219H40.0918C40.4258 16.4684 40.1555 17.6234 39.3516 18.4062L32.2363 25.3438L33.916 35.1328L33.917 35.1406C34.0983 36.2307 33.6556 37.3351 32.7559 37.9951L32.748 38.002L32.7393 38.0078C32.2302 38.3702 31.635 38.5527 31.0332 38.5527C30.583 38.5527 30.1104 38.4536 29.6641 38.2178V38.2168L20.8779 33.5986L12.082 38.2188L12.0811 38.2178C11.0877 38.7449 9.89918 38.6453 9.00781 38.002C8.09447 37.3426 7.65667 36.2243 7.83691 35.1406L7.83789 35.1328L9.5166 25.3447L2.40234 18.4072L2.40332 18.4062C1.59725 17.6271 1.32161 16.4621 1.65918 15.4131L1.66016 15.4102C2.00702 14.3391 2.93486 13.5776 4.02441 13.4189H4.02539L13.8545 11.9902L18.25 3.08105L18.2539 3.07324C18.8095 1.96279 19.935 1.51758 20.877 1.51758Z" fill="#FFD029" stroke="white" stroke-width="2.96448"/>
</svg>
