<svg width="26" height="26" viewBox="0 0 26 26" fill="none" xmlns="http://www.w3.org/2000/svg">
<path d="M22.8528 2H6.78969C6.28775 2.00159 5.80694 2.20224 5.45276 2.5579C5.09858 2.91357 4.89996 3.39522 4.90047 3.89715V5.177C4.90231 5.28353 4.94592 5.38507 5.02191 5.45975C5.0979 5.53443 5.20018 5.57627 5.30672 5.57627C5.41326 5.57627 5.51554 5.53443 5.59152 5.45975C5.66751 5.38507 5.71112 5.28353 5.71297 5.177V3.89715C5.71218 3.61062 5.82511 3.33548 6.02698 3.13212C6.22885 2.92877 6.50315 2.81381 6.78969 2.8125H22.8528C23.1404 2.81275 23.4161 2.92711 23.6195 3.13047C23.8229 3.33382 23.9372 3.60956 23.9375 3.89715V16.4544C23.9367 16.7415 23.822 17.0165 23.6187 17.2191C23.4153 17.4217 23.1399 17.5353 22.8528 17.5351H22.3712C22.3677 17.535 22.3648 17.5331 22.3613 17.5331C22.2533 17.5335 22.1499 17.5767 22.0738 17.6532C21.9976 17.7298 21.9549 17.8334 21.955 17.9413V22.0324C21.9481 22.1302 21.9028 22.2214 21.8291 22.286C21.7553 22.3506 21.659 22.3835 21.5611 22.3776H3.20645C3.10856 22.3835 3.01226 22.3506 2.9385 22.286C2.86473 22.2214 2.81945 22.1302 2.8125 22.0324V7.54944C2.82008 7.45218 2.86568 7.36183 2.93942 7.29796C3.01317 7.23409 3.10911 7.20186 3.20645 7.20825H11.681C11.7527 7.20611 11.8236 7.22342 11.8863 7.25835C11.9489 7.29327 12.001 7.34451 12.0368 7.40662L13.5432 10.2484C13.647 10.4426 13.802 10.6047 13.9916 10.7169C14.1811 10.8291 14.3977 10.8872 14.618 10.8847H21.5611C21.659 10.8787 21.7553 10.9117 21.8291 10.9763C21.9028 11.0409 21.9481 11.132 21.955 11.2299V16.3124C21.9567 16.419 22.0002 16.5208 22.0762 16.5956C22.1523 16.6704 22.2546 16.7124 22.3613 16.7124C22.468 16.7124 22.5704 16.6704 22.6464 16.5956C22.7224 16.5207 22.7659 16.419 22.7675 16.3124V11.2299C22.7606 10.9165 22.6297 10.6187 22.4036 10.4017C22.1774 10.1847 21.8745 10.0662 21.5611 10.0722H14.618C14.5458 10.0738 14.4747 10.0557 14.412 10.02C14.3493 9.98432 14.2975 9.9323 14.2621 9.8695L12.7557 7.02773C12.6515 6.83413 12.4963 6.67282 12.3067 6.56138C12.1172 6.44994 11.9008 6.39265 11.681 6.39574H3.20645C2.89363 6.38928 2.591 6.50708 2.36486 6.72332C2.13872 6.93957 2.00752 7.23664 2 7.54944V22.0324C2.00694 22.3458 2.13783 22.6436 2.36398 22.8606C2.59013 23.0776 2.89309 23.1961 3.20645 23.1901H21.5611C21.8745 23.1961 22.1774 23.0776 22.4036 22.8606C22.6297 22.6436 22.7606 22.3458 22.7675 22.0324V18.3476H22.8529C23.3553 18.3475 23.8372 18.1482 24.1929 17.7933C24.5485 17.4384 24.7489 16.9569 24.75 16.4544V3.89715C24.7495 3.39417 24.5494 2.91193 24.1937 2.55627C23.8381 2.2006 23.3558 2.00055 22.8528 2Z" fill="#707070"/>
<path d="M21.3953 4.29883H7.73718C7.63048 4.30036 7.52869 4.3425 7.45379 4.41615C7.3789 4.4898 7.33691 4.58904 7.33691 4.69243C7.33691 4.79582 7.3789 4.89505 7.45379 4.9687C7.52869 5.04235 7.63048 5.08449 7.73718 5.08602H21.3953C21.502 5.08449 21.6038 5.04235 21.6787 4.9687C21.7536 4.89505 21.7956 4.79582 21.7956 4.69243C21.7956 4.58904 21.7536 4.4898 21.6787 4.41615C21.6038 4.3425 21.502 4.30036 21.3953 4.29883Z" fill="#707070"/>
<path d="M21.3952 6.33203H14.1815C14.0748 6.33357 13.973 6.37571 13.8981 6.44936C13.8232 6.52301 13.7812 6.62225 13.7813 6.72564C13.7813 6.82903 13.8232 6.92827 13.8981 7.00191C13.973 7.07556 14.0748 7.1177 14.1815 7.11923H21.3952C21.5019 7.11769 21.6037 7.07555 21.6786 7.0019C21.7535 6.92826 21.7955 6.82902 21.7955 6.72563C21.7955 6.62224 21.7535 6.523 21.6786 6.44935C21.6037 6.37571 21.5019 6.33356 21.3952 6.33203Z" fill="#707070"/>
<path d="M21.3949 8.36719H16.4767C16.37 8.36865 16.2681 8.41076 16.1931 8.48442C16.1182 8.55807 16.0762 8.65735 16.0762 8.76079C16.0762 8.86422 16.1182 8.9635 16.1931 9.03715C16.2681 9.11081 16.37 9.15292 16.4767 9.15438H21.3949C21.5016 9.15285 21.6034 9.11071 21.6783 9.03706C21.7532 8.96341 21.7952 8.86417 21.7952 8.76079C21.7952 8.6574 21.7532 8.55816 21.6783 8.48451C21.6034 8.41086 21.5016 8.36872 21.3949 8.36719Z" fill="#707070"/>
<path d="M16.1286 19.8488C15.2231 20.1036 14.2895 20.2537 13.3475 20.2958C13.2412 20.304 13.1424 20.3524 13.0726 20.4306C13.0027 20.5088 12.9675 20.6104 12.9743 20.7136C12.9812 20.8168 13.0297 20.9132 13.1094 20.982C13.189 21.0508 13.2934 21.0866 13.4 21.0814C14.4065 21.0353 15.4038 20.8736 16.371 20.5998C16.6535 20.5146 16.8936 20.3315 17.0455 20.0855C17.1973 19.8395 17.2503 19.5479 17.1942 19.2664C17.0852 18.6522 16.8141 18.0758 16.407 17.5932C16 17.1106 15.4709 16.7382 14.8714 16.5124L14.0486 16.1984C14.0158 16.1857 13.9808 16.1774 13.9473 16.1658C14.0675 15.9495 14.1644 15.7217 14.2366 15.4861C14.3877 14.9734 14.464 14.4427 14.4631 13.9094C14.6829 11.0857 9.5896 10.9027 9.55002 13.7645C9.5366 14.3243 9.60894 14.883 9.76467 15.4223C9.8384 15.6801 9.94111 15.9293 10.0709 16.1653C10.0379 16.1769 10.0041 16.1849 9.97137 16.1976L9.1414 16.5128C8.55064 16.7371 8.02839 17.1032 7.62368 17.5766C7.21897 18.0501 6.94506 18.6154 6.82768 19.2196C6.76148 19.5065 6.80821 19.8069 6.95873 20.0622C7.10925 20.3174 7.3527 20.509 7.6414 20.5994C8.9759 20.9646 10.3582 21.1393 11.7448 21.118C11.8516 21.1176 11.9539 21.0764 12.0297 21.0035C12.1054 20.9305 12.1484 20.8316 12.1495 20.7281C12.1505 20.6247 12.1095 20.525 12.0352 20.4506C11.961 20.3762 11.8595 20.3332 11.7527 20.3308C10.4464 20.3529 9.14374 20.1905 7.88578 19.8488C7.794 19.8183 7.71654 19.7569 7.66748 19.6758C7.61842 19.5947 7.601 19.4992 7.61839 19.4067C7.70463 18.9252 7.9175 18.4733 8.23646 18.0947C8.55542 17.716 8.96971 17.4234 9.43937 17.245L10.2705 16.9294C10.3745 16.8902 10.4815 16.8587 10.5904 16.8354C10.9792 17.1841 11.4895 17.3778 12.0193 17.3776C12.5418 17.3755 13.0442 17.1827 13.4264 16.8375C13.5364 16.8598 13.6443 16.8908 13.749 16.9302L14.5738 17.245C15.0368 17.4189 15.4462 17.7044 15.7634 18.0745C16.0806 18.4446 16.2951 18.887 16.3865 19.3598C16.4182 19.4578 16.409 19.5639 16.3608 19.6554C16.3125 19.7468 16.2292 19.8163 16.1286 19.8488ZM12.0157 16.5904C10.8286 16.6659 10.3103 15.0014 10.363 13.7556C10.363 12.5756 11.7376 12.495 12.0066 12.4907C12.715 12.484 13.7922 12.8907 13.6514 13.8883C13.6798 15.0141 13.2063 16.6469 12.0157 16.5904Z" fill="#707070"/>
<path d="M4.93057 10.8823C4.98393 10.8824 5.03677 10.8722 5.08607 10.8524C5.13538 10.8327 5.18017 10.8037 5.2179 10.7671C5.25563 10.7306 5.28556 10.6872 5.30596 10.6394C5.32637 10.5916 5.33685 10.5404 5.33682 10.4887V9.90408H5.94025C6.04799 9.90408 6.15132 9.86261 6.22751 9.7888C6.30369 9.71499 6.3465 9.61487 6.3465 9.51048C6.3465 9.4061 6.30369 9.30598 6.22751 9.23217C6.15132 9.15835 6.04799 9.11689 5.94025 9.11689H5.33682V8.53227C5.33682 8.42788 5.29402 8.32777 5.21783 8.25395C5.14165 8.18014 5.03832 8.13867 4.93057 8.13867C4.82283 8.13867 4.7195 8.18014 4.64331 8.25395C4.56712 8.32777 4.52432 8.42788 4.52432 8.53227V9.11689H3.9209C3.81315 9.11689 3.70982 9.15835 3.63364 9.23217C3.55745 9.30598 3.51465 9.4061 3.51465 9.51048C3.51465 9.61487 3.55745 9.71499 3.63364 9.7888C3.70982 9.86261 3.81315 9.90408 3.9209 9.90408H4.52432V10.4887C4.52429 10.5404 4.53477 10.5916 4.55518 10.6394C4.57558 10.6871 4.6055 10.7305 4.64323 10.7671C4.68097 10.8037 4.72576 10.8327 4.77507 10.8524C4.82437 10.8722 4.87721 10.8824 4.93057 10.8823Z" fill="#707070"/>
</svg>
