<svg width="24" height="23" viewBox="0 0 24 23" fill="none" xmlns="http://www.w3.org/2000/svg">
<path d="M19.8769 17.7171H3.74378C3.5188 17.7171 3.33643 17.5347 3.33643 17.3097C3.33643 17.0847 3.51875 16.9023 3.74378 16.9023H19.8769C20.1019 16.9023 20.2842 17.0847 20.2842 17.3097C20.2842 17.5347 20.1019 17.7171 19.8769 17.7171Z" fill="#707070"/>
<path d="M21.6136 22.627H2.00707C1.1063 22.627 0.373535 21.8942 0.373535 20.9935C0.373535 20.4951 0.596629 20.0304 0.985684 19.7187L2.09765 18.8278C2.27347 18.687 2.52965 18.7153 2.6703 18.891C2.81095 19.0667 2.78263 19.323 2.60712 19.4637L1.49516 20.3545C1.30007 20.5107 1.18824 20.7437 1.18824 20.9935C1.18824 21.4451 1.55549 21.8123 2.00707 21.8123H21.6136C22.0652 21.8123 22.4324 21.4451 22.4324 20.9935C22.4324 20.7437 22.3208 20.5107 22.1257 20.3545L21.0137 19.4637C20.838 19.323 20.8097 19.0667 20.9504 18.891C21.0911 18.7152 21.3476 18.6873 21.5229 18.8278L22.6348 19.7186C23.024 20.0303 23.2471 20.4949 23.2471 20.9935C23.2471 21.8942 22.5142 22.627 21.6136 22.627Z" fill="#707070"/>
<path d="M18.2066 4.57228C17.9816 4.57228 17.7992 4.38996 17.7992 4.16493V2.15551C17.7992 1.62184 17.3651 1.18775 16.8315 1.18775H6.7895C6.25584 1.18775 5.82154 1.62184 5.82154 2.15551V3.82615C5.82154 4.05112 5.63921 4.2335 5.41419 4.2335C5.18916 4.2335 5.00684 4.05117 5.00684 3.82615V2.15551C5.00684 1.17261 5.80655 0.373047 6.78945 0.373047H16.8314C17.8141 0.373047 18.6139 1.17266 18.6139 2.15551V4.16493C18.6139 4.38991 18.4316 4.57228 18.2066 4.57228Z" fill="#707070"/>
<path d="M19.8791 20.0917H3.74153C2.37958 20.0917 1.27148 18.9836 1.27148 17.6217V4.66731C1.27148 3.30542 2.37958 2.19727 3.74153 2.19727H5.41405C5.63902 2.19727 5.8214 2.37959 5.8214 2.60462V15.9343C5.8214 16.468 6.25564 16.9021 6.78936 16.9021H16.8313C17.365 16.9021 17.7991 16.468 17.7991 15.9343V2.60462C17.7991 2.37964 17.9814 2.19727 18.2064 2.19727H19.8791C21.2409 2.19727 22.349 3.30536 22.349 4.66731V17.6217C22.349 18.9835 21.2408 20.0917 19.8791 20.0917ZM3.74153 3.01197C2.82882 3.01197 2.08619 3.7546 2.08619 4.66731V17.6217C2.08619 18.5344 2.82882 19.277 3.74153 19.277H19.8791C20.7918 19.277 21.5342 18.5344 21.5342 17.6217V4.66731C21.5342 3.7546 20.7918 3.01197 19.8791 3.01197H18.6137V15.9343C18.6137 16.9172 17.814 17.7168 16.8313 17.7168H6.78931C5.80641 17.7168 5.00669 16.9172 5.00669 15.9343V3.01197H3.74153Z" fill="#707070"/>
<path d="M12.5629 7.05286H11.0583C10.8333 7.05286 10.651 6.87053 10.651 6.64551V5.71049H9.71595C9.49097 5.71049 9.30859 5.52816 9.30859 5.30313V3.79856C9.30859 3.57353 9.49092 3.3912 9.71595 3.3912H10.651V2.45618C10.651 2.23116 10.8333 2.04883 11.0583 2.04883H12.5629C12.7879 2.04883 12.9703 2.23116 12.9703 2.45618V3.39115H13.9054C14.1304 3.39115 14.3128 3.57348 14.3128 3.79851V5.30313C14.3128 5.52811 14.1305 5.71049 13.9054 5.71049H12.9703V6.64551C12.9703 6.87053 12.7879 7.05286 12.5629 7.05286ZM11.4657 6.23815H12.1556V5.30318C12.1556 5.07816 12.3379 4.89583 12.5629 4.89583H13.4981V4.20591H12.5629C12.338 4.20591 12.1556 4.02358 12.1556 3.79856V2.86354H11.4657V3.79856C11.4657 4.02353 11.2833 4.20591 11.0583 4.20591H10.1234V4.89583H11.0583C11.2833 4.89583 11.4657 5.07816 11.4657 5.30318V6.23815Z" fill="#707070"/>
<path d="M16.1153 10.4631H7.40345C7.17847 10.4631 6.99609 10.2808 6.99609 10.0558C6.99609 9.83077 7.17842 9.64844 7.40345 9.64844H16.1153C16.3403 9.64844 16.5226 9.83077 16.5226 10.0558C16.5226 10.2808 16.3403 10.4631 16.1153 10.4631Z" fill="#707070"/>
<path d="M16.1153 12.1917H7.40345C7.17847 12.1917 6.99609 12.0093 6.99609 11.7843C6.99609 11.5593 7.17842 11.377 7.40345 11.377H16.1153C16.3403 11.377 16.5226 11.5593 16.5226 11.7843C16.5226 12.0093 16.3403 12.1917 16.1153 12.1917Z" fill="#707070"/>
<path d="M16.1153 8.73463H7.40345C7.17847 8.73463 6.99609 8.55225 6.99609 8.32728C6.99609 8.1023 7.17842 7.91992 7.40345 7.91992H16.1153C16.3403 7.91992 16.5226 8.10225 16.5226 8.32728C16.5226 8.55225 16.3403 8.73463 16.1153 8.73463Z" fill="#707070"/>
<path d="M16.1153 13.9202H7.40345C7.17847 13.9202 6.99609 13.7378 6.99609 13.5128C6.99609 13.2878 7.17842 13.1055 7.40345 13.1055H16.1153C16.3403 13.1055 16.5226 13.2878 16.5226 13.5128C16.5226 13.7378 16.3403 13.9202 16.1153 13.9202Z" fill="#707070"/>
<path d="M16.1153 15.6487H7.40345C7.17847 15.6487 6.99609 15.4664 6.99609 15.2413C6.99609 15.0163 7.17842 14.834 7.40345 14.834H16.1153C16.3403 14.834 16.5226 15.0163 16.5226 15.2413C16.5226 15.4664 16.3403 15.6487 16.1153 15.6487Z" fill="#707070"/>
</svg>
