<svg width="22" height="23" viewBox="0 0 22 23" fill="none" xmlns="http://www.w3.org/2000/svg">
<mask id="mask0_2856_986" style="mask-type:luminance" maskUnits="userSpaceOnUse" x="0" y="0" width="22" height="23">
<path d="M21.9785 22.1719V0.214844H0.0214844V22.1719H21.9785Z" fill="white" stroke="white" stroke-width="0.0429687"/>
</mask>
<g mask="url(#mask0_2856_986)">
<path d="M17.3555 21.7637H1.68648C1.11319 21.7637 0.644531 21.2936 0.644531 20.7211V4.01758C0.644531 3.44511 1.11319 2.97499 1.68648 2.97499H2.88054" stroke="#707070" stroke-width="0.866937" stroke-miterlimit="10" stroke-linecap="round" stroke-linejoin="round"/>
<path d="M6.07236 19.4102H3.92156C3.34948 19.4102 2.88086 18.9412 2.88086 18.3676V1.66526C2.88086 1.09159 3.34948 0.622671 3.92156 0.622671H12.9532L17.3558 4.37406V12.2776M14.7729 19.4102H9.92967" stroke="#707070" stroke-width="0.866937" stroke-miterlimit="10" stroke-linecap="round" stroke-linejoin="round"/>
<path d="M17.3553 4.375H14.2319C13.5284 4.375 12.9526 3.80012 12.9526 3.09612V0.623614" stroke="#707070" stroke-width="0.866937" stroke-miterlimit="10" stroke-linecap="round" stroke-linejoin="round"/>
<path d="M5.52051 6.23438H14.714" stroke="#707070" stroke-width="0.866937" stroke-miterlimit="10" stroke-linecap="round" stroke-linejoin="round"/>
<path d="M11.7185 8.39844H14.714M5.52051 8.39844H8.6901" stroke="#707070" stroke-width="0.866937" stroke-miterlimit="10" stroke-linecap="round" stroke-linejoin="round"/>
<path d="M5.52051 10.5625H14.714" stroke="#707070" stroke-width="0.866937" stroke-miterlimit="10" stroke-linecap="round" stroke-linejoin="round"/>
<path d="M8.55011 12.7266H12.1019M5.52051 12.7266H6.38594" stroke="#707070" stroke-width="0.866937" stroke-miterlimit="10" stroke-linecap="round" stroke-linejoin="round"/>
<path d="M5.52051 14.8906H10.8129" stroke="#707070" stroke-width="0.866937" stroke-miterlimit="10" stroke-linecap="round" stroke-linejoin="round"/>
<path d="M5.52051 4.06836H10.8202" stroke="#707070" stroke-width="0.866937" stroke-miterlimit="10" stroke-linecap="round" stroke-linejoin="round"/>
<path d="M16.8846 21.5773C15.8476 20.9574 15.0041 19.9099 14.3541 18.6968C13.6992 17.4751 13.3438 16.1853 13.3547 14.9685C13.3596 14.4289 13.4801 14.3693 13.928 14.1281L17.3557 12.278L20.7833 14.1281C21.2301 14.3693 21.3505 14.4289 21.3554 14.9685C21.3663 16.1853 21.011 17.4751 20.3561 18.6968C19.7061 19.9099 18.8626 20.9574 17.8255 21.5773C17.4105 21.8258 17.2997 21.8258 16.8846 21.5773Z" stroke="#707070" stroke-width="0.866937" stroke-miterlimit="10" stroke-linecap="round" stroke-linejoin="round"/>
<path d="M7.99902 19.4102H8.00247" stroke="#707070" stroke-width="0.866937" stroke-miterlimit="10" stroke-linecap="round" stroke-linejoin="round"/>
<path d="M16.0166 16.9562L16.8881 17.7734L18.6945 15.9184" stroke="#707070" stroke-width="0.866937" stroke-miterlimit="10" stroke-linecap="round" stroke-linejoin="round"/>
</g>
</svg>
