<svg width="24" height="24" viewBox="0 0 24 24" fill="none" xmlns="http://www.w3.org/2000/svg">
<rect x="0.5" y="0.5" width="23" height="23" rx="3.5" stroke="#EFEFEF"/>
<path d="M6.66611 18.0004C6.71925 18.0068 6.77297 18.0068 6.82611 18.0004L9.49277 17.3338C9.61107 17.3056 9.71942 17.2457 9.80611 17.1604L17.9994 8.94042C18.2478 8.69061 18.3872 8.35267 18.3872 8.00042C18.3872 7.64818 18.2478 7.31024 17.9994 7.06042L16.9461 6.00042C16.8223 5.87646 16.6752 5.77811 16.5134 5.71101C16.3515 5.64391 16.178 5.60938 16.0028 5.60938C15.8276 5.60938 15.654 5.64391 15.4922 5.71101C15.3303 5.77811 15.1833 5.87646 15.0594 6.00042L6.86611 14.1938C6.77996 14.2808 6.71794 14.3888 6.68611 14.5071L6.01944 17.1738C5.99548 17.26 5.98914 17.3502 6.00079 17.439C6.01245 17.5277 6.04186 17.6133 6.08728 17.6904C6.1327 17.7676 6.19319 17.8348 6.26515 17.888C6.33711 17.9413 6.41905 17.9795 6.50611 18.0004C6.55925 18.0068 6.61297 18.0068 6.66611 18.0004ZM15.9994 6.94042L17.0594 8.00042L15.9994 9.06042L14.9461 8.00042L15.9994 6.94042ZM7.93944 15.0071L13.9994 8.94042L15.0594 10.0004L8.99277 16.0671L7.58611 16.4138L7.93944 15.0071Z" fill="#0066D4"/>
</svg>
