<svg width="20" height="21" viewBox="0 0 20 21" fill="none" xmlns="http://www.w3.org/2000/svg">
<path fill-rule="evenodd" clip-rule="evenodd" d="M10 20.9675C15.5228 20.9675 20 16.4904 20 10.9675C20 5.44468 15.5228 0.967529 10 0.967529C4.47715 0.967529 0 5.44468 0 10.9675C0 16.4904 4.47715 20.9675 10 20.9675ZM6.58579 7.55332C6 8.1391 6 9.08191 6 10.9675C6 12.8531 6 13.796 6.58579 14.3817C7.17157 14.9675 8.11438 14.9675 10 14.9675C11.8856 14.9675 12.8284 14.9675 13.4142 14.3817C14 13.796 14 12.8531 14 10.9675C14 9.08191 14 8.1391 13.4142 7.55332C12.8284 6.96753 11.8856 6.96753 10 6.96753C8.11438 6.96753 7.17157 6.96753 6.58579 7.55332Z" fill="white"/>
</svg>
