<svg width="20" height="21" viewBox="0 0 20 21" fill="none" xmlns="http://www.w3.org/2000/svg">
<path d="M5.75 1.125C5.75 0.710786 5.41421 0.375 5 0.375C4.58579 0.375 4.25 0.710786 4.25 1.125V2.70426C2.81067 2.81951 1.86577 3.10237 1.17157 3.79657C0.477374 4.49077 0.194513 5.43567 0.0792572 6.875H19.9207C19.8055 5.43567 19.5226 4.49077 18.8284 3.79657C18.1342 3.10237 17.1893 2.81951 15.75 2.70426V1.125C15.75 0.710786 15.4142 0.375 15 0.375C14.5858 0.375 14.25 0.710786 14.25 1.125V2.6379C13.5847 2.625 12.839 2.625 12 2.625H8C7.16097 2.625 6.41527 2.625 5.75 2.6379V1.125Z" fill="#9E9E9E"/>
<path fill-rule="evenodd" clip-rule="evenodd" d="M0 10.625C0 9.78596 0 9.04027 0.012902 8.375H19.9871C20 9.04027 20 9.78596 20 10.625V12.625C20 16.3962 20 18.2819 18.8284 19.4534C17.6569 20.625 15.7712 20.625 12 20.625H8C4.22876 20.625 2.34315 20.625 1.17157 19.4534C0 18.2819 0 16.3962 0 12.625V10.625ZM15 12.625C15.5523 12.625 16 12.1773 16 11.625C16 11.0727 15.5523 10.625 15 10.625C14.4477 10.625 14 11.0727 14 11.625C14 12.1773 14.4477 12.625 15 12.625ZM15 16.625C15.5523 16.625 16 16.1773 16 15.625C16 15.0727 15.5523 14.625 15 14.625C14.4477 14.625 14 15.0727 14 15.625C14 16.1773 14.4477 16.625 15 16.625ZM11 11.625C11 12.1773 10.5523 12.625 10 12.625C9.44771 12.625 9 12.1773 9 11.625C9 11.0727 9.44771 10.625 10 10.625C10.5523 10.625 11 11.0727 11 11.625ZM11 15.625C11 16.1773 10.5523 16.625 10 16.625C9.44771 16.625 9 16.1773 9 15.625C9 15.0727 9.44771 14.625 10 14.625C10.5523 14.625 11 15.0727 11 15.625ZM5 12.625C5.55228 12.625 6 12.1773 6 11.625C6 11.0727 5.55228 10.625 5 10.625C4.44772 10.625 4 11.0727 4 11.625C4 12.1773 4.44772 12.625 5 12.625ZM5 16.625C5.55228 16.625 6 16.1773 6 15.625C6 15.0727 5.55228 14.625 5 14.625C4.44772 14.625 4 15.0727 4 15.625C4 16.1773 4.44772 16.625 5 16.625Z" fill="#9E9E9E"/>
</svg>
