<svg width="80" height="81" viewBox="0 0 80 81" fill="none" xmlns="http://www.w3.org/2000/svg">
<path d="M39.8906 78.3716C60.8602 78.3716 77.8594 61.3724 77.8594 40.4028C77.8594 19.4333 60.8602 2.43408 39.8906 2.43408C18.9211 2.43408 1.92188 19.4333 1.92188 40.4028C1.92188 61.3724 18.9211 78.3716 39.8906 78.3716Z" fill="#28279C"/>
<path d="M31.8438 54.3716C33.4531 54.1216 33.4844 49.6997 33.4844 49.6997C33.4844 49.6997 28.7656 45.0278 27.7344 38.7466C24.9688 38.7466 23.2656 32.0747 26.0313 29.7153C25.9219 27.2466 22.4688 10.3091 39.8906 10.3091C57.3125 10.3091 53.8594 27.2466 53.75 29.7153C56.5156 32.0591 54.8125 38.7466 52.0469 38.7466C51.0156 45.0278 46.2969 49.6997 46.2969 49.6997C46.2969 49.6997 46.3281 54.1216 47.9375 54.3716C51.6406 54.9653 62.5938 59.4966 68.5156 65.4497C74.375 58.7622 77.9219 49.9966 77.9219 40.4028C77.9219 19.4028 60.8906 2.37158 39.8906 2.37158C18.8906 2.37158 1.85938 19.3872 1.85938 40.4028C1.85938 49.9966 5.40625 58.7622 11.2656 65.4497C17.1875 59.4966 28.1406 54.9653 31.8438 54.3716Z" fill="#DFE6F0"/>
<path d="M39.8906 78.4341C51.2969 78.4341 61.5469 73.4028 68.5156 65.4497C62.5937 59.4966 51.6406 54.9653 47.9375 54.3716C46.3281 54.1216 46.2969 49.6997 46.2969 49.6997C46.2969 49.6997 51.0156 45.0278 52.0469 38.7466C54.8125 38.7466 56.5156 32.0747 53.75 29.7153C53.8594 27.2466 57.2969 10.3091 39.8906 10.3091C22.4688 10.3091 25.9219 27.2466 26.0312 29.7153C23.2656 32.0591 24.9687 38.7466 27.7344 38.7466C28.7656 45.0278 33.4844 49.6997 33.4844 49.6997C33.4844 49.6997 33.4531 54.1216 31.8438 54.3716C28.1406 54.9653 17.1875 59.4966 11.2656 65.4497C18.2344 73.4028 28.4688 78.4341 39.8906 78.4341Z" fill="#B9B9B9"/>
</svg>
