<svg xmlns="http://www.w3.org/2000/svg" width="16" height="16" viewBox="0 0 16 16" fill="none">
  <path fill-rule="evenodd" clip-rule="evenodd" d="M7.7676 4.18414C7.53792 4.423 7.54537 4.80282 7.78423 5.0325L10.9344 8L7.78423 10.9675C7.54537 11.1972 7.53792 11.577 7.7676 11.8159C7.99727 12.0547 8.3771 12.0622 8.61596 11.8325L12.216 8.4325C12.3336 8.31938 12.4001 8.16321 12.4001 8C12.4001 7.83679 12.3336 7.68062 12.216 7.5675L8.61596 4.1675C8.3771 3.93782 7.99727 3.94527 7.7676 4.18414Z" fill="#333333"/>
  <path fill-rule="evenodd" clip-rule="evenodd" d="M3.7676 4.18414C3.53792 4.423 3.54537 4.80282 3.78423 5.0325L6.93443 8L3.78423 10.9675C3.54537 11.1972 3.53792 11.577 3.7676 11.8159C3.99727 12.0547 4.3771 12.0622 4.61596 11.8325L8.21596 8.4325C8.33361 8.31938 8.4001 8.16321 8.4001 8C8.4001 7.83679 8.33361 7.68062 8.21596 7.5675L4.61596 4.1675C4.3771 3.93782 3.99727 3.94527 3.7676 4.18414Z" fill="#333333"/>
</svg> 