<svg width="162" height="162" viewBox="0 0 162 162" fill="none" xmlns="http://www.w3.org/2000/svg">
<g clip-path="url(#clip0_1268_1304)">
<path d="M80.928 160.899C125.405 160.899 161.461 124.984 161.461 80.6814C161.461 36.3785 125.405 0.463867 80.928 0.463867C36.4511 0.463867 0.395508 36.3785 0.395508 80.6814C0.395508 124.984 36.4511 160.899 80.928 160.899Z" fill="#FDFCFD"/>
<path d="M56.153 91.7085C57.6322 89.3053 59.3977 87.1708 61.8962 85.7352C62.2978 85.5046 62.6757 85.1907 63.1863 85.2174C63.5911 85.431 63.5733 85.8305 63.5799 86.1887C63.5988 87.1972 63.653 88.2077 63.5352 89.213C63.2852 90.2048 62.2982 90.6494 61.8231 91.4755C61.1479 92.263 60.612 93.1459 60.0734 94.0267C59.8836 94.3371 59.7581 94.694 59.4079 94.8805C56.8713 100.649 56.002 106.754 55.7455 112.972C55.6144 116.149 55.6189 119.332 55.5239 122.511C55.5053 123.132 55.6808 123.358 56.3096 123.52C61.6756 124.9 65.3929 129.968 65.1734 134.918C65.0822 136.978 65.1598 139.046 65.1486 141.11C65.1413 142.479 64.3244 143.336 63.0584 143.331C61.7809 143.327 60.9567 142.488 60.9444 141.124C60.9241 138.857 60.9444 136.59 60.9221 134.323C60.8822 130.324 57.5075 127.106 53.3665 127.098C49.2739 127.089 45.8914 130.258 45.8135 134.214C45.7687 136.48 45.7977 138.748 45.7722 141.015C45.7554 142.506 44.97 143.371 43.6928 143.359C42.3496 143.347 41.5401 142.478 41.5404 140.966C41.5408 138.361 41.2528 135.725 41.6774 133.159C42.5058 128.156 45.5419 124.96 50.4235 123.482C50.6157 123.424 50.7996 123.338 50.9873 123.265C51.2267 121.739 51.0261 120.203 51.0949 118.673C51.1295 117.908 51.0051 117.138 51.1739 116.378C51.3945 112.034 51.5643 107.688 52.3529 103.392C53.0991 99.327 54.1694 95.3736 56.1523 91.7082L56.153 91.7085Z" fill="#232323"/>
<path d="M99.1304 85.2319C101.746 86.1526 103.541 88.0423 105.1 90.2097C105.435 90.674 105.766 91.1397 106.099 91.6051C109.385 97.6873 110.339 104.324 110.768 111.077C111.082 116.012 111.055 120.955 111.023 125.897C111.019 126.407 110.971 126.782 111.682 127.01C115.631 128.278 118.236 132.203 117.915 136.248C117.592 140.312 114.52 143.743 110.586 144.432C106.32 145.179 102.398 143.149 100.597 139.262C98.8906 135.579 99.9742 131.204 103.239 128.555C104.092 127.863 105.014 127.281 106.067 126.969C106.56 126.822 106.692 126.602 106.687 126.119C106.629 119.725 106.869 113.317 106.064 106.952C105.537 102.787 104.701 98.6816 102.774 94.8812C101.874 93.9549 101.51 92.6718 100.634 91.7293C100.193 90.9507 99.416 90.4475 98.9403 89.6936C98.8948 89.5875 98.8669 89.4793 98.8508 89.3656C98.7959 88.3263 98.8242 87.288 98.8284 86.2501C98.8298 85.8877 98.7938 85.5021 99.1308 85.2319H99.1304Z" fill="#010912"/>
<path d="M80.9072 146.232C79.3043 142.81 77.9732 139.275 76.5356 135.785C73.7348 128.986 70.9679 122.173 68.187 115.365C67.8581 114.656 68.389 114.392 68.8602 114.12C71.0382 112.859 73.2608 111.678 75.4615 110.457C76.8893 109.666 78.3001 108.844 79.7307 108.058C80.218 107.791 80.6867 107.36 81.3358 107.61C81.4214 107.702 81.4819 107.806 81.5235 107.924C81.6322 108.289 81.6283 108.663 81.6283 109.035C81.6332 120.88 81.6318 132.725 81.6294 144.571C81.6294 144.875 81.6381 145.182 81.5748 145.481C81.4965 145.852 81.4113 146.229 80.9069 146.232H80.9072Z" fill="#203956"/>
<path d="M80.9062 146.232C81.4585 145.936 81.2883 145.412 81.2886 144.963C81.2953 132.524 81.2935 120.086 81.2932 107.648C81.368 107.573 81.4585 107.531 81.5644 107.522C83.2733 108.053 84.6868 109.148 86.2468 109.963C88.6851 111.236 91.0637 112.622 93.4884 113.922C93.875 114.129 94.3028 114.292 94.4591 114.762C93.4748 117.24 92.5045 119.724 91.5038 122.195C88.2587 130.211 85.0028 138.222 81.7504 146.235C81.6389 146.509 81.5197 146.781 81.3816 147.107C81.023 146.87 80.9524 146.558 80.9062 146.232V146.232Z" fill="#3B6089"/>
<path d="M81.1209 107.607C77.0391 109.869 72.959 112.135 68.8729 114.39C68.4682 114.613 68.0917 114.814 68.1861 115.364C65.9341 109.982 63.682 104.601 61.43 99.22C60.8704 97.8832 60.3101 96.5463 59.7522 95.2088C59.6844 95.0465 59.5995 94.9099 59.4072 94.8797C59.9469 93.5921 60.7155 92.4442 61.5943 91.364C62.2066 92.2157 62.7865 93.091 63.4489 93.9066C66.3741 97.302 69.9072 99.9941 73.5885 102.51C75.8059 104.025 78.0671 105.475 80.3841 106.838C80.6938 107.02 81.0797 107.158 81.1209 107.607Z" fill="#37577D"/>
<path d="M94.4594 114.763C90.1234 112.376 85.7871 109.988 81.4512 107.601C81.4882 107.05 81.9863 106.944 82.3439 106.726C86.2331 104.36 90.0196 101.852 93.5548 98.98C95.4807 97.415 97.2225 95.6644 98.9659 93.9121C99.7332 93.2518 100.022 92.2254 100.789 91.5654C101.64 92.56 102.288 93.6735 102.773 94.8828C101.15 98.3346 99.8087 101.904 98.3298 105.416C97.0211 108.524 95.7478 111.647 94.4591 114.763L94.4594 114.763Z" fill="#6D8AAC"/>
<path d="M51.1752 116.378C51.1707 118.568 51.1658 120.759 51.1623 122.949C51.1623 123.089 51.1444 123.213 50.9886 123.266C50.9879 121.254 50.9847 119.242 50.99 117.23C50.9907 116.937 50.912 116.618 51.1756 116.378H51.1752Z" fill="#F1F0F0"/>
<path d="M63.2494 75.3512C61.1931 73.0108 59.7114 70.3895 59.2846 67.2663C59.0501 65.5501 59.1626 63.8231 59.1896 62.0996C59.1952 61.7358 59.1903 61.3717 59.1903 61.0128C59.0658 60.9993 58.9861 60.9643 58.9379 60.9896C56.5338 62.2442 55.2825 61.9339 54.0402 59.5362C52.2157 56.015 51.496 52.2052 51.4331 48.2741C51.4145 47.1307 51.9741 46.1996 52.964 45.5615C54.4967 44.585 56.0661 45.3132 56.1815 47.0645C56.2283 47.7737 56.1958 48.4853 56.1986 49.1958C56.2049 50.8708 56.5219 51.2744 57.8299 51.2668C59.019 51.2599 59.2913 50.8691 59.293 49.1549C59.2951 47.1585 59.3385 45.1607 59.2776 43.166C59.2378 41.8634 59.494 40.6972 60.2574 39.6243C60.7286 38.9619 61.0641 38.2174 61.4025 37.4746C62.4549 35.1615 62.6657 32.7926 62.0033 30.3423C61.9075 29.9886 61.738 29.5877 62.0397 29.2804C62.3913 28.9219 62.8132 29.1677 63.1872 29.2936C66.7304 30.4879 70.3764 31.2616 74.1069 31.3285C78.8249 31.4131 83.3252 30.4751 87.3134 27.7556C88.6888 26.8179 90.0736 25.8771 91.6266 25.2352C94.5477 24.0274 97.4093 24.8728 98.9598 27.388C99.5659 28.3708 99.8165 29.4712 99.7945 30.5933C99.7267 34.0709 100.673 37.287 102.281 40.3265C102.871 41.4425 103.139 42.5709 103.105 43.8266C103.052 45.8216 103.08 47.8191 103.096 49.8155C103.104 50.9516 103.364 51.2412 104.318 51.2672C105.462 51.2984 106.097 50.8264 106.166 49.8422C106.222 49.0321 106.18 48.2186 106.185 47.4064C106.199 45.2907 107.32 44.5975 109.31 45.4755C110.809 46.4424 111.161 47.869 111.016 49.5305C110.708 53.0638 109.979 56.4894 108.347 59.6711C107.48 61.3603 106.431 61.9678 105.065 61.7088C104.46 61.594 103.935 61.2691 103.179 60.8033C103.884 66.363 102.963 71.296 99.114 75.3724C98.6054 76.6146 97.539 77.3997 96.6092 78.2712C93.5438 81.1453 90.19 83.6283 86.3088 85.3369C82.8732 86.8492 79.373 86.8582 75.9829 85.3452C71.4159 83.3068 67.5151 80.3113 64.1708 76.6097C63.873 76.1842 63.5332 75.7875 63.2494 75.3512Z" fill="white"/>
<path d="M109.31 45.4758C107.432 45.4064 106.493 46.2829 106.494 48.1051C106.494 48.6804 106.475 49.2557 106.489 49.8303C106.505 50.4805 106.4 51.0791 105.702 51.326C104.854 51.626 103.973 51.7716 103.128 51.3316C102.703 51.1096 102.759 50.6512 102.76 50.2416C102.768 47.7378 102.762 45.2341 102.785 42.7306C102.79 42.1713 102.669 41.6816 102.396 41.1902C100.541 37.8514 99.5087 34.3156 99.4458 30.458C99.3748 26.1149 95.6121 23.85 91.5683 25.552C90.4306 26.031 89.3967 26.6916 88.4089 27.4028C82.6818 31.5271 76.2738 32.2321 69.5072 31.1675C66.9933 30.7718 64.5442 30.1064 62.031 29.2175C62.2886 30.3779 62.6077 31.4002 62.6881 32.4745C62.8989 35.289 61.8129 37.7096 60.369 40.0011C59.7839 40.9294 59.5018 41.8488 59.5297 42.9463C59.5895 45.3131 59.5493 47.6827 59.5462 50.0509C59.5444 51.2462 59.2697 51.5251 58.0407 51.55C57.6685 51.5577 57.2917 51.5296 56.9233 51.4758C56.1606 51.3648 55.816 50.9151 55.8317 50.1435C55.8523 49.1291 55.8362 48.1138 55.8247 47.0987C55.809 45.6644 55.4461 45.3343 53.9788 45.4265C53.6398 45.4477 53.3035 45.5157 52.9652 45.5621C51.3245 42.2198 50.3318 38.6813 49.8634 35.0085C49.2206 29.9659 49.553 24.9996 51.5356 20.2556C54.0753 14.1786 58.7076 10.1552 64.6382 7.4961C71.3999 4.46417 78.5126 3.69119 85.8339 4.41389C92.0503 5.0277 97.8529 6.84588 102.936 10.5346C108.835 14.816 112.023 20.6329 112.66 27.8585C113.205 34.05 111.936 39.886 109.311 45.4761L109.31 45.4758Z" fill="#010912"/>
<path d="M63.2488 75.3513C63.6983 75.5916 64.0415 75.937 64.2823 76.383C64.5462 77.2146 65.2341 77.7528 65.7403 78.4106C68.3453 81.7966 71.3849 84.7079 75.1214 86.8784C78.4052 88.786 81.9719 89.8718 85.7192 89.8465C89.8276 89.8188 93.7924 88.9632 96.7774 85.7271C97.3604 85.0949 97.826 84.4037 98.2241 83.6523C98.4055 83.31 98.5202 82.8654 99.0473 82.864C99.0483 83.0111 99.049 83.1584 99.0501 83.3055C98.9945 85.4628 98.9291 87.6202 99.0854 89.7761L99.0931 89.7872C99.6474 91.2007 99.5961 92.6173 99.1134 94.036C96.3807 97.1681 93.1374 99.7236 89.7899 102.161C87.1044 104.116 84.2407 105.803 81.4507 107.6C81.391 107.593 81.3385 107.609 81.2931 107.648C81.2403 107.615 81.183 107.601 81.1211 107.607C76.8914 105.01 72.654 102.421 68.7959 99.2849C66.82 97.6786 64.8566 96.0522 63.2642 94.0443C62.7685 92.5379 62.8031 91.0297 63.2477 89.5202C63.2271 88.0862 63.2065 86.6526 63.1859 85.218C63.2068 81.9287 63.2278 78.6402 63.2491 75.3517L63.2488 75.3513Z" fill="#F6F6F6"/>
<path d="M99.0472 82.8649C98.2219 83.9636 97.6899 85.238 96.6724 86.2385C94.6221 88.2536 92.1296 89.2846 89.3714 89.7552C82.0574 91.0029 75.9231 88.5147 70.4672 83.8394C68.1851 81.8839 66.2599 79.6367 64.5381 77.2041C64.3937 77.0002 63.8761 76.798 64.2826 76.3843C67.385 79.7137 70.9052 82.5126 74.9717 84.6051C79.2314 86.7968 83.4926 86.6907 87.6751 84.4328C91.9314 82.135 95.6875 79.1922 98.8661 75.5457C98.9301 75.4722 99.0304 75.4296 99.1136 75.373C99.0916 77.8706 99.0695 80.3681 99.0475 82.8656L99.0472 82.8649Z" fill="#A7BACF"/>
<path d="M99.0861 89.776C98.6761 89.2298 98.8991 88.6032 98.9016 88.0216C98.9086 86.4486 98.774 84.869 99.0508 83.3047C99.0774 83.948 99.1043 84.5906 99.1312 85.2328C99.1162 86.7469 99.1012 88.2616 99.0861 89.776Z" fill="#AAA8A7"/>
<path d="M63.248 89.5195C63.2536 91.0277 63.2589 92.5355 63.2644 94.0437C62.6559 93.1823 61.758 92.4984 61.5947 91.3641C62.0131 90.6324 62.766 90.1954 63.248 89.5195Z" fill="#B9B7B4"/>
<path d="M114.477 135.673C114.467 138.766 111.923 141.297 108.825 141.297C105.739 141.297 103.188 138.722 103.217 135.637C103.247 132.519 105.763 130.027 108.881 130.03C112.002 130.034 114.487 132.54 114.477 135.673V135.673Z" fill="#FEFDFD"/>
<path d="M99.115 94.0361C99.1084 92.6199 99.1014 91.2036 99.0947 89.7874C99.7749 90.2718 100.333 90.8707 100.79 91.5646C100.45 92.5342 99.8731 93.3457 99.115 94.0358V94.0361Z" fill="#AAA8A7"/>
<path d="M160.354 64.6775C159.29 59.4768 157.702 54.361 155.635 49.4728C153.605 44.6733 151.092 40.0441 148.167 35.7138C145.27 31.4248 141.942 27.3917 138.277 23.7262C134.612 20.0607 130.579 16.733 126.29 13.8353C121.96 10.9094 117.33 8.39666 112.53 6.36624C107.641 4.29838 102.525 2.71011 97.3241 1.64583C91.9881 0.553812 86.4955 0 80.9998 0C75.5041 0 70.0119 0.553812 64.6752 1.64583C59.4742 2.71011 54.358 4.29838 49.4691 6.36624C44.6693 8.39666 40.0397 10.9094 35.7097 13.8353C31.421 16.733 27.3877 20.0607 23.7225 23.7262C20.0573 27.3913 16.7301 31.4248 13.8324 35.7138C10.9072 40.0441 8.39474 44.6733 6.36465 49.4728C4.29716 54.361 2.70923 59.4768 1.64525 64.6775C0.553661 70.0134 0 75.5051 0 81.0002C0 86.4953 0.553661 91.987 1.64525 97.3229C2.70958 102.524 4.29716 107.639 6.36465 112.528C8.39474 117.327 10.9072 121.956 13.8324 126.287C16.7297 130.576 20.0573 134.609 23.7225 138.274C27.3877 141.94 31.4206 145.267 35.7097 148.165C40.0401 151.091 44.6693 153.604 49.4691 155.634C54.358 157.702 59.4742 159.29 64.6752 160.355C70.0119 161.447 75.5041 162 80.9998 162C86.4955 162 91.9878 161.447 97.3244 160.355C102.526 159.29 107.642 157.702 112.531 155.634C117.33 153.604 121.96 151.091 126.29 148.165C130.579 145.267 134.612 141.94 138.278 138.274C141.943 134.609 145.27 130.576 148.168 126.287C151.093 121.956 153.605 117.327 155.635 112.528C157.703 107.639 159.291 102.524 160.355 97.3229C161.447 91.987 162 86.4953 162 81.0002C162 75.5051 161.446 70.0134 160.354 64.6775ZM80.9998 160.648C52.8058 160.648 27.9871 145.918 13.8321 123.75C13.895 123.591 13.9551 123.434 14.0114 123.276C15.7786 118.298 17.6577 113.355 19.2568 108.325C20.2278 105.272 22.1629 103.542 25.1297 102.51C33.0379 99.7601 40.8923 96.8589 48.7914 94.0822C51.0759 93.2791 53.3049 92.3074 55.6688 91.7286C55.7198 91.7161 55.7726 91.7127 55.825 91.7141C56.2661 91.7258 56.3011 91.292 56.4773 91.0375C58.0932 88.7022 59.9376 86.6174 62.642 85.4629C62.8926 85.3558 63.059 85.2101 63.1352 84.9747C63.1502 84.9285 63.1568 84.8803 63.1586 84.8321C63.2655 81.7607 63.289 78.6875 63.1397 75.6136C63.1376 75.5668 63.1292 75.5203 63.1159 75.4756C62.9636 74.9658 62.6 74.5868 62.2809 74.1807C60.154 71.4751 58.945 68.4612 59.067 64.9826C59.1047 63.9021 59.1131 62.8173 59.0533 61.7367C59.0023 60.8136 58.7608 60.6877 57.882 61.0314C56.1001 61.7284 55.2791 61.4808 54.2196 59.9362C53.8918 59.4584 53.6324 58.9489 53.3947 58.4211C52.0962 55.5369 51.6079 52.4686 51.2814 49.367C51.1486 48.104 51.4391 46.9437 52.4041 46.0212C52.5153 45.9151 52.6156 45.7989 52.6705 45.6571C52.7044 45.569 52.7107 45.4726 52.6957 45.3797C52.675 45.2545 52.6338 45.1345 52.5821 45.018C50.1329 39.4979 49.036 33.7624 49.6019 27.7222C50.1224 22.166 52.1347 17.2833 56.1197 13.295C59.6126 9.79905 63.8968 7.60044 68.6176 6.16754C72.9829 4.84282 77.4437 4.43986 81.9984 4.49847C88.1076 4.57719 93.8735 5.90155 99.2629 8.72541C103.89 11.1501 107.555 14.5822 109.852 19.2839C111.97 23.6183 112.632 28.2163 112.216 33.0072C111.865 37.0628 110.898 40.9384 109.174 44.632C109.049 44.9008 108.94 45.1747 108.988 45.4792C108.991 45.5004 108.996 45.5215 109.002 45.542C109.048 45.6984 109.119 45.8503 109.247 45.9435C110.336 46.7339 110.534 47.8432 110.525 49.0909C110.506 51.4893 109.937 53.7829 109.288 56.0637C108.907 57.4006 108.428 58.7083 107.676 59.8943C106.71 61.4201 105.704 61.761 104.121 61.1333C102.866 60.6354 102.704 60.7807 102.821 62.1012C103.222 66.6135 102.383 70.7916 99.3496 74.3589C99.0508 74.7102 98.7579 75.0685 98.6425 75.5259C98.6348 75.556 98.6306 75.5866 98.6282 75.6174C98.451 77.9721 98.5915 80.3312 98.5527 82.689C98.5527 82.7071 98.553 82.7251 98.5544 82.7431C98.5691 82.9155 98.58 83.0871 98.5831 83.2598C98.6184 83.8542 98.5272 84.4545 98.6659 85.0433C98.6806 85.1051 98.7044 85.1644 98.739 85.2174C99.1039 85.7757 99.7998 85.8128 100.314 86.1333C102.297 87.3685 103.786 89.0664 105.106 90.9418C105.286 91.198 105.364 91.6242 105.799 91.6131C105.868 91.6114 105.938 91.6221 106.003 91.6454C108.252 92.4385 110.5 93.2305 112.748 94.0254C120.962 96.9307 129.175 99.8392 137.389 102.742C139.922 103.638 141.643 105.218 142.53 107.84C144.321 113.132 146.295 118.364 148.206 123.616C148.211 123.632 148.217 123.648 148.222 123.664C134.076 145.88 109.23 160.648 80.9998 160.648Z" fill="#37679E"/>
</g>
<defs>
<clipPath id="clip0_1268_1304">
<rect width="162" height="162" fill="white"/>
</clipPath>
</defs>
</svg>
