<svg width="166" height="166" viewBox="0 0 166 166" fill="none" xmlns="http://www.w3.org/2000/svg">
<circle cx="83" cy="83" r="83" fill="url(#paint0_linear_8303_4767)"/>
<path fill-rule="evenodd" clip-rule="evenodd" d="M62.9351 79.2845C71.6902 63.7615 76.0678 56 83 56C89.9322 56 94.3098 63.7615 103.065 79.2845L104.156 81.2188C111.431 94.1183 115.069 100.568 111.781 105.284C108.493 110 100.359 110 84.091 110H81.909C65.6407 110 57.5065 110 54.2188 105.284C50.931 100.568 54.5687 94.1183 61.8442 81.2188L62.9351 79.2845ZM83 68.75C84.2426 68.75 85.25 69.7574 85.25 71V86C85.25 87.2426 84.2426 88.25 83 88.25C81.7574 88.25 80.75 87.2426 80.75 86V71C80.75 69.7574 81.7574 68.75 83 68.75ZM83 98C84.6569 98 86 96.6569 86 95C86 93.3431 84.6569 92 83 92C81.3431 92 80 93.3431 80 95C80 96.6569 81.3431 98 83 98Z" fill="#F14C00"/>
<defs>
<linearGradient id="paint0_linear_8303_4767" x1="-126.68" y1="-122.966" x2="155.743" y2="175.951" gradientUnits="userSpaceOnUse">
<stop stop-color="#FF7C36" stop-opacity="0.4"/>
<stop offset="1" stop-color="#E2A31C" stop-opacity="0"/>
</linearGradient>
</defs>
</svg>
