<svg width="29" height="28" viewBox="0 0 29 28" fill="none" xmlns="http://www.w3.org/2000/svg">
<rect x="0.666992" y="0.331055" width="27.5556" height="27.5556" rx="13.7778" fill="#FAFAFA"/>
<path d="M18.097 17.762C18.3212 17.5378 18.3212 17.1743 18.097 16.9502L15.2559 14.109L18.0978 11.2671C18.322 11.0429 18.322 10.6794 18.0978 10.4553C17.8736 10.2311 17.5101 10.2311 17.2859 10.4553L14.444 13.2972L11.6021 10.4553C11.3779 10.2311 11.0144 10.2311 10.7902 10.4553C10.566 10.6794 10.566 11.0429 10.7902 11.2671L13.6321 14.109L10.791 16.9502C10.5668 17.1743 10.5668 17.5378 10.791 17.762C11.0152 17.9862 11.3787 17.9862 11.6029 17.762L14.444 14.9209L17.2851 17.762C17.5093 17.9862 17.8728 17.9862 18.097 17.762Z" fill="#5A5A5A"/>
</svg>
