<svg width="28" height="29" viewBox="0 0 28 29" fill="none" xmlns="http://www.w3.org/2000/svg">
<rect x="0.5" y="1.05371" width="26.5556" height="26.5556" rx="13.2778" stroke="white" stroke-opacity="0.3"/>
<path d="M17.43 17.9847C17.6542 17.7605 17.6542 17.397 17.43 17.1728L14.5889 14.3317L17.4308 11.4898C17.655 11.2656 17.655 10.9021 17.4308 10.6779C17.2066 10.4537 16.8431 10.4537 16.6189 10.6779L13.777 13.5198L10.9351 10.6779C10.7109 10.4537 10.3474 10.4537 10.1232 10.6779C9.89903 10.9021 9.89903 11.2656 10.1232 11.4898L12.9651 14.3317L10.124 17.1728C9.89981 17.397 9.89981 17.7605 10.124 17.9847C10.3482 18.2089 10.7117 18.2089 10.9359 17.9847L13.777 15.1435L16.6181 17.9847C16.8423 18.2089 17.2058 18.2089 17.43 17.9847Z" fill="white"/>
</svg>
