<svg width="56" height="57" viewBox="0 0 56 57" fill="none" xmlns="http://www.w3.org/2000/svg">
<rect y="0.397461" width="56" height="56" rx="16" fill="#FFF3DC"/>
<path fill-rule="evenodd" clip-rule="evenodd" d="M21.3117 27.159C24.2301 21.9846 25.6893 19.3975 28 19.3975C30.3107 19.3975 31.7699 21.9846 34.6883 27.1589L35.0519 27.8037C37.4771 32.1036 38.6897 34.2535 37.5937 35.8255C36.4978 37.3975 33.7864 37.3975 28.3637 37.3975H27.6363C22.2136 37.3975 19.5022 37.3975 18.4063 35.8255C17.3103 34.2535 18.5229 32.1036 20.9481 27.8037L21.3117 27.159ZM28 23.6475C28.4142 23.6475 28.75 23.9832 28.75 24.3975V29.3975C28.75 29.8117 28.4142 30.1475 28 30.1475C27.5858 30.1475 27.25 29.8117 27.25 29.3975V24.3975C27.25 23.9832 27.5858 23.6475 28 23.6475ZM28 33.3975C28.5523 33.3975 29 32.9497 29 32.3975C29 31.8452 28.5523 31.3975 28 31.3975C27.4477 31.3975 27 31.8452 27 32.3975C27 32.9497 27.4477 33.3975 28 33.3975Z" fill="#EC9112"/>
</svg>
