<svg width="16" height="16" viewBox="0 0 16 16" fill="none" xmlns="http://www.w3.org/2000/svg">
<path d="M0 3.2C0 1.69151 0 0.937258 0.468629 0.468629C0.937258 0 1.69151 0 3.2 0C4.70849 0 5.46274 0 5.93137 0.468629C6.4 0.937258 6.4 1.69151 6.4 3.2V12.8C6.4 14.3085 6.4 15.0627 5.93137 15.5314C5.46274 16 4.70849 16 3.2 16C1.69151 16 0.937258 16 0.468629 15.5314C0 15.0627 0 14.3085 0 12.8V3.2Z" fill="#0066D4"/>
<path d="M9.6 3.2C9.6 1.69151 9.6 0.937258 10.0686 0.468629C10.5373 0 11.2915 0 12.8 0C14.3085 0 15.0627 0 15.5314 0.468629C16 0.937258 16 1.69151 16 3.2V12.8C16 14.3085 16 15.0627 15.5314 15.5314C15.0627 16 14.3085 16 12.8 16C11.2915 16 10.5373 16 10.0686 15.5314C9.6 15.0627 9.6 14.3085 9.6 12.8V3.2Z" fill="#0066D4"/>
</svg>
