<svg width="10" height="10" viewBox="0 0 10 10" fill="none" xmlns="http://www.w3.org/2000/svg">
<path d="M8.52734 0.527344C8.78769 0.266994 9.21035 0.266994 9.4707 0.527344C9.731 0.787697 9.73104 1.21037 9.4707 1.4707L5.94141 4.99902L9.4707 8.52734C9.731 8.7877 9.73104 9.21037 9.4707 9.4707C9.21037 9.73104 8.7877 9.731 8.52734 9.4707L4.99902 5.94141L1.4707 9.4707C1.21037 9.73104 0.787697 9.731 0.527344 9.4707C0.266994 9.21035 0.266994 8.78769 0.527344 8.52734L4.05664 4.99902L0.527344 1.4707C0.266994 1.21035 0.266994 0.787693 0.527344 0.527344C0.787693 0.266994 1.21035 0.266994 1.4707 0.527344L4.99902 4.05664L8.52734 0.527344Z" fill="#EC2A2A"/>
</svg>
