<svg width="19" height="20" viewBox="0 0 19 20" fill="none" xmlns="http://www.w3.org/2000/svg">
<path d="M11.5757 15.2696L6.46571 12.4826C5.97521 12.9695 5.35153 13.3003 4.6733 13.4333C3.99508 13.5662 3.29267 13.4954 2.65464 13.2297C2.0166 12.9641 1.4715 12.5155 1.08806 11.9405C0.704619 11.3654 0.5 10.6898 0.5 9.99865C0.5 9.30751 0.704619 8.63185 1.08806 8.05684C1.4715 7.48183 2.0166 7.03321 2.65464 6.76755C3.29267 6.50188 3.99508 6.43106 4.6733 6.56402C5.35153 6.69697 5.97521 7.02775 6.46571 7.51465L11.5757 4.72765C11.4005 3.90538 11.527 3.04751 11.9323 2.3109C12.3376 1.57429 12.9945 1.00818 13.7828 0.716079C14.5712 0.423981 15.4383 0.42542 16.2257 0.720132C17.0131 1.01484 17.6681 1.58314 18.0709 2.32108C18.4737 3.05903 18.5975 3.91732 18.4195 4.739C18.2415 5.56068 17.7737 6.29083 17.1016 6.79595C16.4295 7.30106 15.5981 7.54737 14.7593 7.48984C13.9206 7.43231 13.1305 7.07479 12.5337 6.48265L7.42371 9.26965C7.52565 9.7503 7.52565 10.247 7.42371 10.7276L12.5337 13.5146C13.1305 12.9225 13.9206 12.565 14.7593 12.5074C15.5981 12.4499 16.4295 12.6962 17.1016 13.2013C17.7737 13.7065 18.2415 14.4366 18.4195 15.2583C18.5975 16.08 18.4737 16.9383 18.0709 17.6762C17.6681 18.4142 17.0131 18.9824 16.2257 19.2772C15.4383 19.5719 14.5712 19.5733 13.7828 19.2812C12.9945 18.9891 12.3376 18.423 11.9323 17.6864C11.527 16.9498 11.4005 16.0919 11.5757 15.2696Z" fill="#3184DD"/>
</svg>
