<svg width="64" height="55" viewBox="0 0 64 55" fill="none" xmlns="http://www.w3.org/2000/svg">
<path d="M42.3281 5.22168C42.7739 5.22174 43.1356 5.58354 43.1357 6.0293C43.1357 6.47514 42.774 6.83685 42.3281 6.83691C38.5619 6.83691 35.1815 9.35568 34.1084 12.9609C33.9907 13.3585 33.5932 13.5979 33.1924 13.5254L33.1885 13.5303L33.1035 13.5049C32.6765 13.3773 32.4332 12.9284 32.5605 12.501C33.8095 8.30396 37.6993 5.22168 42.3281 5.22168Z" fill="#4C95EB" stroke="#F9FFF9" stroke-width="0.274752"/>
<path d="M51.7099 38.8669H47.689C47.319 38.8669 47.0189 38.5667 47.0189 38.1967C47.0189 37.8267 47.319 37.5266 47.689 37.5266H51.7099C57.2524 37.5266 61.7621 33.0169 61.7621 27.4743C61.7621 21.9318 57.2524 17.4221 51.7099 17.4221H51.6132C51.4188 17.4221 51.234 17.3378 51.1067 17.1909C50.9794 17.0439 50.922 16.8491 50.9497 16.6567C51.0096 16.2393 51.0397 15.82 51.0397 15.4117C51.0397 10.6081 47.1312 6.69967 42.3277 6.69967C40.459 6.69967 38.6768 7.28365 37.1737 8.38891C36.8434 8.6316 36.3743 8.5239 36.1834 8.16057C31.9265 0.0546751 20.808 -1.03386 15.0437 6.01756C12.6154 8.98822 11.6613 12.8526 12.4258 16.6189C12.51 17.0349 12.1917 17.4226 11.769 17.4226H11.5005C5.95794 17.4226 1.44827 21.9323 1.44827 27.4748C1.44827 33.0174 5.95794 37.5271 11.5005 37.5271H15.5213C15.8914 37.5271 16.1915 37.8272 16.1915 38.1972C16.1915 38.5672 15.8914 38.8674 15.5213 38.8674H11.5005C5.21876 38.8674 0.10791 33.7565 0.10791 27.4748C0.10791 21.3693 4.93582 16.3699 10.9744 16.0942C10.4072 12.1867 11.4919 8.24528 14.0059 5.16935C20.1774 -2.38082 32.0048 -1.53455 37.0045 6.88445C38.5995 5.88448 40.4247 5.3599 42.3275 5.3599C48.1473 5.3599 52.7589 10.3133 52.3554 16.1005C58.3383 16.436 63.1022 21.409 63.1022 27.4743C63.1022 33.7565 57.9913 38.8669 51.7096 38.8669L51.7099 38.8669Z" fill="#0066D4"/>
<path d="M31.5154 20.9287C40.8294 20.9287 48.407 28.5063 48.407 37.8203C48.407 47.1342 40.8294 54.7119 31.5154 54.7119C22.2015 54.7119 14.6238 47.1344 14.6238 37.8203C14.6238 28.5064 22.2013 20.9287 31.5154 20.9287ZM31.5154 22.5439C23.0924 22.544 16.239 29.3974 16.239 37.8203C16.239 46.2433 23.0925 53.0967 31.5154 53.0967C39.9383 53.0967 46.7917 46.2432 46.7917 37.8203C46.7917 29.3973 39.9383 22.5439 31.5154 22.5439Z" fill="#0066D4" stroke="#F9FFF9" stroke-width="0.274752"/>
<path d="M31.8213 31.1787C32.1679 31.1787 32.449 31.4601 32.4492 31.8066V44.5635C32.4492 44.9106 32.168 45.1914 31.8213 45.1914C31.4747 45.1912 31.1934 44.9101 31.1934 44.5635V31.8066C31.1936 31.4602 31.4748 31.1789 31.8213 31.1787Z" fill="#0066D4" stroke="#0066D4" stroke-width="0.274752"/>
<path d="M31.3777 31.3672C31.6227 31.1217 32.0201 31.122 32.2654 31.3672L36.1912 35.292C36.4361 35.5372 36.436 35.9344 36.1912 36.1797C36.0685 36.3028 35.9069 36.3642 35.7468 36.3643C35.5864 36.3643 35.425 36.3022 35.3025 36.1797L31.821 32.6982L28.3406 36.1797C28.0955 36.4252 27.6982 36.425 27.4529 36.1797C27.2076 35.9343 27.2076 35.5373 27.4529 35.292L31.3777 31.3672Z" fill="#0066D4" stroke="#0066D4" stroke-width="0.274752"/>
</svg>
