<svg  width="390" height="228" viewBox="0 0 390 228" fill="none" xmlns="http://www.w3.org/2000/svg">
            <path d="M18.5028 208.545C18.5028 210.564 18.1335 212.3 17.3949 213.753C16.6563 215.199 15.6437 216.313 14.3572 217.095C13.0769 217.871 11.6212 218.259 9.99006 218.259C8.35275 218.259 6.89086 217.871 5.6044 217.095C4.3241 216.313 3.31463 215.196 2.57599 213.744C1.83736 212.291 1.46804 210.558 1.46804 208.545C1.46804 206.527 1.83736 204.794 2.57599 203.347C3.31463 201.895 4.3241 200.781 5.6044 200.005C6.89086 199.223 8.35275 198.832 9.99006 198.832C11.6212 198.832 13.0769 199.223 14.3572 200.005C15.6437 200.781 16.6563 201.895 17.3949 203.347C18.1335 204.794 18.5028 206.527 18.5028 208.545ZM15.6776 208.545C15.6776 207.007 15.4283 205.711 14.9297 204.658C14.4373 203.6 13.7602 202.799 12.8984 202.258C12.0429 201.71 11.0734 201.436 9.99006 201.436C8.90057 201.436 7.92803 201.71 7.07244 202.258C6.21686 202.799 5.53977 203.6 5.04119 204.658C4.54877 205.711 4.30256 207.007 4.30256 208.545C4.30256 210.084 4.54877 211.383 5.04119 212.442C5.53977 213.494 6.21686 214.295 7.07244 214.842C7.92803 215.384 8.90057 215.655 9.99006 215.655C11.0734 215.655 12.0429 215.384 12.8984 214.842C13.7602 214.295 14.4373 213.494 14.9297 212.442C15.4283 211.383 15.6776 210.084 15.6776 208.545ZM27.812 218.286C26.4824 218.286 25.3221 217.982 24.3311 217.372C23.3401 216.763 22.5707 215.91 22.0229 214.815C21.4751 213.719 21.2012 212.439 21.2012 210.974C21.2012 209.503 21.4751 208.216 22.0229 207.114C22.5707 206.013 23.3401 205.157 24.3311 204.548C25.3221 203.938 26.4824 203.634 27.812 203.634C29.1415 203.634 30.3018 203.938 31.2928 204.548C32.2838 205.157 33.0532 206.013 33.601 207.114C34.1489 208.216 34.4228 209.503 34.4228 210.974C34.4228 212.439 34.1489 213.719 33.601 214.815C33.0532 215.91 32.2838 216.763 31.2928 217.372C30.3018 217.982 29.1415 218.286 27.812 218.286ZM27.8212 215.969C28.6829 215.969 29.397 215.741 29.9632 215.286C30.5295 214.83 30.9481 214.224 31.2189 213.467C31.4959 212.71 31.6344 211.875 31.6344 210.964C31.6344 210.06 31.4959 209.229 31.2189 208.472C30.9481 207.708 30.5295 207.096 29.9632 206.634C29.397 206.173 28.6829 205.942 27.8212 205.942C26.9533 205.942 26.2331 206.173 25.6607 206.634C25.0944 207.096 24.6728 207.708 24.3958 208.472C24.1249 209.229 23.9895 210.06 23.9895 210.964C23.9895 211.875 24.1249 212.71 24.3958 213.467C24.6728 214.224 25.0944 214.83 25.6607 215.286C26.2331 215.741 26.9533 215.969 27.8212 215.969ZM37.5043 223.318V203.818H40.2003V206.117H40.4311C40.5911 205.822 40.822 205.48 41.1236 205.092C41.4252 204.705 41.8438 204.366 42.3793 204.077C42.9148 203.781 43.6226 203.634 44.5028 203.634C45.6477 203.634 46.6695 203.923 47.5682 204.501C48.4669 205.08 49.1716 205.914 49.6825 207.004C50.1996 208.093 50.4581 209.404 50.4581 210.937C50.4581 212.469 50.2027 213.784 49.6918 214.879C49.1809 215.969 48.4792 216.809 47.5866 217.4C46.6941 217.985 45.6754 218.277 44.5305 218.277C43.6688 218.277 42.964 218.132 42.4162 217.843C41.8745 217.554 41.4498 217.215 41.142 216.827C40.8343 216.44 40.5973 216.095 40.4311 215.793H40.2649V223.318H37.5043ZM40.2095 210.909C40.2095 211.906 40.3542 212.78 40.6435 213.531C40.9328 214.282 41.3513 214.87 41.8991 215.295C42.447 215.713 43.1179 215.923 43.9119 215.923C44.7367 215.923 45.4261 215.704 45.9801 215.267C46.5341 214.824 46.9527 214.224 47.2358 213.467C47.5251 212.71 47.6697 211.857 47.6697 210.909C47.6697 209.973 47.5282 209.133 47.245 208.388C46.968 207.644 46.5495 207.056 45.9893 206.625C45.4354 206.194 44.7429 205.979 43.9119 205.979C43.1117 205.979 42.4347 206.185 41.8807 206.597C41.3329 207.01 40.9174 207.585 40.6342 208.324C40.3511 209.062 40.2095 209.924 40.2095 210.909ZM64.1783 207.281L61.6761 207.724C61.5715 207.404 61.4053 207.099 61.1776 206.81C60.956 206.52 60.6544 206.283 60.2727 206.099C59.8911 205.914 59.4141 205.822 58.8416 205.822C58.0599 205.822 57.4074 205.997 56.8842 206.348C56.361 206.693 56.0994 207.139 56.0994 207.687C56.0994 208.161 56.2749 208.542 56.6257 208.832C56.9766 209.121 57.5429 209.358 58.3246 209.543L60.5774 210.06C61.8823 210.361 62.8549 210.826 63.495 211.454C64.1352 212.082 64.4553 212.897 64.4553 213.901C64.4553 214.75 64.209 215.507 63.7166 216.172C63.2304 216.83 62.5502 217.348 61.6761 217.723C60.8082 218.098 59.8018 218.286 58.657 218.286C57.0689 218.286 55.7732 217.948 54.7699 217.271C53.7666 216.587 53.151 215.618 52.9233 214.362L55.5916 213.956C55.7578 214.652 56.0994 215.178 56.6165 215.535C57.1335 215.886 57.8075 216.061 58.6385 216.061C59.5433 216.061 60.2666 215.873 60.8082 215.498C61.3499 215.116 61.6207 214.652 61.6207 214.104C61.6207 213.661 61.4545 213.288 61.1222 212.987C60.7959 212.685 60.2943 212.457 59.6172 212.303L57.2166 211.777C55.8932 211.475 54.9145 210.995 54.2805 210.337C53.6527 209.678 53.3388 208.844 53.3388 207.835C53.3388 206.997 53.5727 206.265 54.0405 205.637C54.5083 205.009 55.1546 204.52 55.9794 204.169C56.8042 203.812 57.7491 203.634 58.8139 203.634C60.3466 203.634 61.553 203.966 62.4332 204.631C63.3134 205.289 63.8951 206.173 64.1783 207.281ZM69.3095 218.175C68.8047 218.175 68.3708 217.997 68.0076 217.64C67.6445 217.277 67.4629 216.84 67.4629 216.329C67.4629 215.824 67.6445 215.393 68.0076 215.036C68.3708 214.673 68.8047 214.491 69.3095 214.491C69.8142 214.491 70.2482 214.673 70.6113 215.036C70.9745 215.393 71.1561 215.824 71.1561 216.329C71.1561 216.667 71.0699 216.978 70.8975 217.261C70.7314 217.538 70.5098 217.76 70.2328 217.926C69.9558 218.092 69.648 218.175 69.3095 218.175ZM76.6728 218.175C76.168 218.175 75.7341 217.997 75.3709 217.64C75.0078 217.277 74.8262 216.84 74.8262 216.329C74.8262 215.824 75.0078 215.393 75.3709 215.036C75.7341 214.673 76.168 214.491 76.6728 214.491C77.1775 214.491 77.6114 214.673 77.9746 215.036C78.3378 215.393 78.5194 215.824 78.5194 216.329C78.5194 216.667 78.4332 216.978 78.2608 217.261C78.0946 217.538 77.873 217.76 77.5961 217.926C77.3191 218.092 77.0113 218.175 76.6728 218.175ZM84.036 218.175C83.5313 218.175 83.0974 217.997 82.7342 217.64C82.371 217.277 82.1895 216.84 82.1895 216.329C82.1895 215.824 82.371 215.393 82.7342 215.036C83.0974 214.673 83.5313 214.491 84.036 214.491C84.5408 214.491 84.9747 214.673 85.3379 215.036C85.7011 215.393 85.8826 215.824 85.8826 216.329C85.8826 216.667 85.7965 216.978 85.6241 217.261C85.4579 217.538 85.2363 217.76 84.9593 217.926C84.6824 218.092 84.3746 218.175 84.036 218.175ZM106.691 204.058C106.593 203.184 106.187 202.507 105.473 202.027C104.759 201.541 103.86 201.298 102.777 201.298C102.001 201.298 101.33 201.421 100.764 201.667C100.198 201.907 99.7575 202.239 99.4435 202.664C99.1358 203.083 98.9819 203.56 98.9819 204.095C98.9819 204.545 99.0865 204.932 99.2958 205.259C99.5112 205.585 99.7913 205.859 100.136 206.08C100.487 206.296 100.862 206.477 101.262 206.625C101.663 206.767 102.047 206.884 102.417 206.976L104.263 207.456C104.866 207.604 105.485 207.804 106.119 208.056C106.753 208.308 107.341 208.641 107.882 209.053C108.424 209.466 108.861 209.977 109.194 210.586C109.532 211.195 109.701 211.925 109.701 212.774C109.701 213.845 109.424 214.796 108.87 215.627C108.323 216.458 107.525 217.114 106.479 217.594C105.439 218.074 104.18 218.314 102.703 218.314C101.287 218.314 100.062 218.089 99.0281 217.64C97.994 217.191 97.1845 216.554 96.5998 215.729C96.015 214.898 95.6919 213.913 95.6303 212.774H98.4925C98.5479 213.457 98.7695 214.027 99.1573 214.482C99.5513 214.932 100.053 215.267 100.662 215.489C101.278 215.704 101.952 215.812 102.684 215.812C103.491 215.812 104.208 215.686 104.836 215.433C105.47 215.175 105.968 214.818 106.331 214.362C106.694 213.901 106.876 213.362 106.876 212.746C106.876 212.186 106.716 211.728 106.396 211.371C106.082 211.014 105.654 210.718 105.113 210.484C104.577 210.25 103.971 210.044 103.294 209.866L101.059 209.256C99.5451 208.844 98.3448 208.238 97.4585 207.438C96.5782 206.637 96.1381 205.579 96.1381 204.261C96.1381 203.172 96.4336 202.221 97.0245 201.408C97.6154 200.596 98.4156 199.965 99.4251 199.516C100.435 199.06 101.573 198.832 102.841 198.832C104.122 198.832 105.251 199.057 106.23 199.506C107.215 199.956 107.99 200.574 108.556 201.362C109.123 202.144 109.418 203.043 109.443 204.058H106.691ZM118.863 218.286C117.533 218.286 116.373 217.982 115.382 217.372C114.391 216.763 113.622 215.91 113.074 214.815C112.526 213.719 112.252 212.439 112.252 210.974C112.252 209.503 112.526 208.216 113.074 207.114C113.622 206.013 114.391 205.157 115.382 204.548C116.373 203.938 117.533 203.634 118.863 203.634C120.192 203.634 121.353 203.938 122.344 204.548C123.335 205.157 124.104 206.013 124.652 207.114C125.2 208.216 125.474 209.503 125.474 210.974C125.474 212.439 125.2 213.719 124.652 214.815C124.104 215.91 123.335 216.763 122.344 217.372C121.353 217.982 120.192 218.286 118.863 218.286ZM118.872 215.969C119.734 215.969 120.448 215.741 121.014 215.286C121.58 214.83 121.999 214.224 122.27 213.467C122.547 212.71 122.685 211.875 122.685 210.964C122.685 210.06 122.547 209.229 122.27 208.472C121.999 207.708 121.58 207.096 121.014 206.634C120.448 206.173 119.734 205.942 118.872 205.942C118.004 205.942 117.284 206.173 116.711 206.634C116.145 207.096 115.724 207.708 115.447 208.472C115.176 209.229 115.04 210.06 115.04 210.964C115.04 211.875 115.176 212.71 115.447 213.467C115.724 214.224 116.145 214.83 116.711 215.286C117.284 215.741 118.004 215.969 118.872 215.969ZM128.555 218V203.818H131.205V206.126H131.38C131.676 205.345 132.159 204.735 132.83 204.298C133.501 203.855 134.304 203.634 135.24 203.634C136.188 203.634 136.982 203.855 137.622 204.298C138.268 204.741 138.745 205.351 139.053 206.126H139.201C139.539 205.369 140.078 204.766 140.816 204.317C141.555 203.861 142.435 203.634 143.457 203.634C144.743 203.634 145.793 204.037 146.605 204.843C147.424 205.649 147.833 206.865 147.833 208.49V218H145.073V208.749C145.073 207.788 144.811 207.093 144.288 206.662C143.765 206.231 143.14 206.016 142.414 206.016C141.515 206.016 140.816 206.293 140.318 206.847C139.819 207.394 139.57 208.099 139.57 208.961V218H136.819V208.573C136.819 207.804 136.578 207.185 136.098 206.717C135.618 206.25 134.993 206.016 134.224 206.016C133.701 206.016 133.218 206.154 132.775 206.431C132.337 206.702 131.984 207.08 131.713 207.567C131.448 208.053 131.316 208.616 131.316 209.256V218H128.555ZM157.646 218.286C156.249 218.286 155.045 217.988 154.036 217.391C153.032 216.787 152.257 215.941 151.709 214.852C151.167 213.756 150.896 212.473 150.896 211.001C150.896 209.549 151.167 208.268 151.709 207.161C152.257 206.053 153.02 205.188 153.999 204.566C154.984 203.944 156.135 203.634 157.452 203.634C158.252 203.634 159.028 203.766 159.779 204.031C160.53 204.295 161.204 204.711 161.801 205.277C162.398 205.843 162.869 206.579 163.213 207.484C163.558 208.382 163.73 209.475 163.73 210.761V211.74H152.457V209.672H161.025C161.025 208.946 160.877 208.302 160.582 207.742C160.286 207.176 159.871 206.73 159.335 206.403C158.806 206.077 158.184 205.914 157.47 205.914C156.695 205.914 156.018 206.105 155.439 206.487C154.867 206.862 154.423 207.354 154.11 207.964C153.802 208.567 153.648 209.223 153.648 209.93V211.546C153.648 212.494 153.814 213.3 154.146 213.965C154.485 214.63 154.956 215.138 155.559 215.489C156.162 215.833 156.867 216.006 157.673 216.006C158.197 216.006 158.674 215.932 159.105 215.784C159.535 215.63 159.908 215.402 160.222 215.101C160.536 214.799 160.776 214.427 160.942 213.984L163.555 214.455C163.346 215.224 162.97 215.898 162.428 216.477C161.893 217.049 161.219 217.495 160.406 217.815C159.6 218.129 158.68 218.286 157.646 218.286ZM173.413 203.818V206.034H165.667V203.818H173.413ZM167.744 200.42H170.505V213.836C170.505 214.371 170.585 214.775 170.745 215.045C170.905 215.31 171.111 215.492 171.364 215.59C171.622 215.683 171.902 215.729 172.204 215.729C172.425 215.729 172.619 215.713 172.786 215.683C172.952 215.652 173.081 215.627 173.173 215.609L173.672 217.889C173.512 217.951 173.284 218.012 172.989 218.074C172.693 218.142 172.324 218.179 171.881 218.185C171.154 218.197 170.477 218.068 169.849 217.797C169.222 217.526 168.714 217.107 168.326 216.541C167.938 215.975 167.744 215.264 167.744 214.408V200.42ZM179.532 209.58V218H176.772V199.091H179.496V206.126H179.671C180.003 205.363 180.511 204.757 181.194 204.308C181.878 203.858 182.77 203.634 183.872 203.634C184.845 203.634 185.694 203.834 186.42 204.234C187.153 204.634 187.719 205.231 188.119 206.025C188.525 206.813 188.729 207.798 188.729 208.979V218H185.968V209.312C185.968 208.272 185.7 207.465 185.165 206.893C184.629 206.314 183.884 206.025 182.93 206.025C182.278 206.025 181.693 206.163 181.176 206.44C180.665 206.717 180.262 207.124 179.966 207.659C179.677 208.188 179.532 208.829 179.532 209.58ZM192.412 218V203.818H195.173V218H192.412ZM193.807 201.63C193.327 201.63 192.914 201.47 192.569 201.15C192.231 200.824 192.062 200.436 192.062 199.987C192.062 199.531 192.231 199.143 192.569 198.823C192.914 198.497 193.327 198.334 193.807 198.334C194.287 198.334 194.696 198.497 195.035 198.823C195.379 199.143 195.552 199.531 195.552 199.987C195.552 200.436 195.379 200.824 195.035 201.15C194.696 201.47 194.287 201.63 193.807 201.63ZM201.648 209.58V218H198.887V203.818H201.537V206.126H201.712C202.039 205.375 202.549 204.772 203.245 204.317C203.947 203.861 204.83 203.634 205.895 203.634C206.861 203.634 207.708 203.837 208.434 204.243C209.16 204.643 209.723 205.24 210.124 206.034C210.524 206.828 210.724 207.81 210.724 208.979V218H207.963V209.312C207.963 208.284 207.695 207.481 207.16 206.902C206.624 206.317 205.889 206.025 204.953 206.025C204.313 206.025 203.744 206.163 203.245 206.44C202.753 206.717 202.362 207.124 202.072 207.659C201.789 208.188 201.648 208.829 201.648 209.58ZM220.372 223.614C219.246 223.614 218.276 223.466 217.464 223.17C216.657 222.875 215.999 222.484 215.488 221.998C214.977 221.512 214.595 220.979 214.343 220.401L216.716 219.422C216.882 219.693 217.104 219.979 217.381 220.281C217.664 220.588 218.045 220.85 218.526 221.065C219.012 221.281 219.637 221.388 220.4 221.388C221.446 221.388 222.311 221.133 222.994 220.622C223.678 220.117 224.019 219.311 224.019 218.203V215.415H223.844C223.678 215.716 223.438 216.052 223.124 216.421C222.816 216.79 222.391 217.111 221.849 217.381C221.308 217.652 220.603 217.788 219.735 217.788C218.615 217.788 217.605 217.526 216.707 217.003C215.814 216.473 215.106 215.695 214.583 214.667C214.066 213.633 213.808 212.362 213.808 210.854C213.808 209.346 214.063 208.053 214.574 206.976C215.091 205.899 215.799 205.074 216.697 204.501C217.596 203.923 218.615 203.634 219.754 203.634C220.634 203.634 221.345 203.781 221.886 204.077C222.428 204.366 222.85 204.705 223.151 205.092C223.459 205.48 223.696 205.822 223.862 206.117H224.065V203.818H226.771V218.314C226.771 219.533 226.487 220.533 225.921 221.315C225.355 222.096 224.589 222.675 223.622 223.05C222.662 223.426 221.579 223.614 220.372 223.614ZM220.344 215.498C221.138 215.498 221.809 215.313 222.357 214.944C222.911 214.568 223.33 214.033 223.613 213.337C223.902 212.636 224.047 211.795 224.047 210.817C224.047 209.863 223.905 209.022 223.622 208.296C223.339 207.57 222.924 207.004 222.376 206.597C221.828 206.185 221.151 205.979 220.344 205.979C219.513 205.979 218.821 206.194 218.267 206.625C217.713 207.05 217.295 207.628 217.011 208.361C216.734 209.093 216.596 209.912 216.596 210.817C216.596 211.746 216.737 212.562 217.021 213.263C217.304 213.965 217.722 214.513 218.276 214.907C218.836 215.301 219.526 215.498 220.344 215.498ZM240.428 218L236.255 203.818H239.108L241.887 214.233H242.026L244.814 203.818H247.667L250.437 214.187H250.575L253.336 203.818H256.189L252.025 218H249.209L246.328 207.761H246.116L243.235 218H240.428ZM264.49 218.286C263.092 218.286 261.889 217.988 260.879 217.391C259.876 216.787 259.101 215.941 258.553 214.852C258.011 213.756 257.74 212.473 257.74 211.001C257.74 209.549 258.011 208.268 258.553 207.161C259.101 206.053 259.864 205.188 260.843 204.566C261.827 203.944 262.978 203.634 264.296 203.634C265.096 203.634 265.871 203.766 266.622 204.031C267.373 204.295 268.047 204.711 268.644 205.277C269.241 205.843 269.712 206.579 270.057 207.484C270.402 208.382 270.574 209.475 270.574 210.761V211.74H259.301V209.672H267.869C267.869 208.946 267.721 208.302 267.426 207.742C267.13 207.176 266.715 206.73 266.179 206.403C265.65 206.077 265.028 205.914 264.314 205.914C263.539 205.914 262.861 206.105 262.283 206.487C261.71 206.862 261.267 207.354 260.953 207.964C260.646 208.567 260.492 209.223 260.492 209.93V211.546C260.492 212.494 260.658 213.3 260.99 213.965C261.329 214.63 261.8 215.138 262.403 215.489C263.006 215.833 263.711 216.006 264.517 216.006C265.04 216.006 265.517 215.932 265.948 215.784C266.379 215.63 266.752 215.402 267.066 215.101C267.379 214.799 267.619 214.427 267.786 213.984L270.399 214.455C270.189 215.224 269.814 215.898 269.272 216.477C268.737 217.049 268.063 217.495 267.25 217.815C266.444 218.129 265.524 218.286 264.49 218.286ZM276.398 209.58V218H273.637V203.818H276.287V206.126H276.462C276.789 205.375 277.299 204.772 277.995 204.317C278.697 203.861 279.58 203.634 280.645 203.634C281.611 203.634 282.458 203.837 283.184 204.243C283.91 204.643 284.473 205.24 284.874 206.034C285.274 206.828 285.474 207.81 285.474 208.979V218H282.713V209.312C282.713 208.284 282.445 207.481 281.91 206.902C281.374 206.317 280.639 206.025 279.703 206.025C279.063 206.025 278.494 206.163 277.995 206.44C277.503 206.717 277.112 207.124 276.822 207.659C276.539 208.188 276.398 208.829 276.398 209.58ZM295.796 203.818V206.034H288.05V203.818H295.796ZM290.127 200.42H292.888V213.836C292.888 214.371 292.968 214.775 293.128 215.045C293.288 215.31 293.494 215.492 293.746 215.59C294.005 215.683 294.285 215.729 294.587 215.729C294.808 215.729 295.002 215.713 295.168 215.683C295.335 215.652 295.464 215.627 295.556 215.609L296.055 217.889C295.895 217.951 295.667 218.012 295.371 218.074C295.076 218.142 294.707 218.179 294.263 218.185C293.537 218.197 292.86 218.068 292.232 217.797C291.604 217.526 291.097 217.107 290.709 216.541C290.321 215.975 290.127 215.264 290.127 214.408V200.42ZM308.805 218L304.632 203.818H307.485L310.264 214.233H310.403L313.191 203.818H316.044L318.814 214.187H318.952L321.713 203.818H324.566L320.402 218H317.586L314.705 207.761H314.493L311.612 218H308.805ZM327.186 218V203.818H329.854V206.071H330.002C330.26 205.308 330.716 204.708 331.368 204.271C332.027 203.827 332.772 203.606 333.603 203.606C333.775 203.606 333.978 203.612 334.212 203.624C334.452 203.637 334.64 203.652 334.775 203.67V206.311C334.665 206.28 334.468 206.246 334.184 206.21C333.901 206.166 333.618 206.145 333.335 206.145C332.683 206.145 332.101 206.283 331.59 206.56C331.085 206.831 330.685 207.21 330.39 207.696C330.094 208.176 329.947 208.724 329.947 209.339V218H327.186ZM342.63 218.286C341.301 218.286 340.141 217.982 339.15 217.372C338.158 216.763 337.389 215.91 336.841 214.815C336.293 213.719 336.02 212.439 336.02 210.974C336.02 209.503 336.293 208.216 336.841 207.114C337.389 206.013 338.158 205.157 339.15 204.548C340.141 203.938 341.301 203.634 342.63 203.634C343.96 203.634 345.12 203.938 346.111 204.548C347.102 205.157 347.872 206.013 348.419 207.114C348.967 208.216 349.241 209.503 349.241 210.974C349.241 212.439 348.967 213.719 348.419 214.815C347.872 215.91 347.102 216.763 346.111 217.372C345.12 217.982 343.96 218.286 342.63 218.286ZM342.64 215.969C343.501 215.969 344.215 215.741 344.782 215.286C345.348 214.83 345.766 214.224 346.037 213.467C346.314 212.71 346.453 211.875 346.453 210.964C346.453 210.06 346.314 209.229 346.037 208.472C345.766 207.708 345.348 207.096 344.782 206.634C344.215 206.173 343.501 205.942 342.64 205.942C341.772 205.942 341.051 206.173 340.479 206.634C339.913 207.096 339.491 207.708 339.214 208.472C338.943 209.229 338.808 210.06 338.808 210.964C338.808 211.875 338.943 212.71 339.214 213.467C339.491 214.224 339.913 214.83 340.479 215.286C341.051 215.741 341.772 215.969 342.64 215.969ZM355.083 209.58V218H352.323V203.818H354.972V206.126H355.148C355.474 205.375 355.985 204.772 356.681 204.317C357.382 203.861 358.266 203.634 359.33 203.634C360.297 203.634 361.143 203.837 361.869 204.243C362.596 204.643 363.159 205.24 363.559 206.034C363.959 206.828 364.159 207.81 364.159 208.979V218H361.399V209.312C361.399 208.284 361.131 207.481 360.595 206.902C360.06 206.317 359.324 206.025 358.389 206.025C357.749 206.025 357.179 206.163 356.681 206.44C356.188 206.717 355.797 207.124 355.508 207.659C355.225 208.188 355.083 208.829 355.083 209.58ZM373.808 223.614C372.681 223.614 371.712 223.466 370.899 223.17C370.093 222.875 369.434 222.484 368.923 221.998C368.413 221.512 368.031 220.979 367.779 220.401L370.151 219.422C370.318 219.693 370.539 219.979 370.816 220.281C371.099 220.588 371.481 220.85 371.961 221.065C372.447 221.281 373.072 221.388 373.835 221.388C374.882 221.388 375.747 221.133 376.43 220.622C377.113 220.117 377.455 219.311 377.455 218.203V215.415H377.279C377.113 215.716 376.873 216.052 376.559 216.421C376.251 216.79 375.827 217.111 375.285 217.381C374.743 217.652 374.039 217.788 373.171 217.788C372.05 217.788 371.041 217.526 370.142 217.003C369.25 216.473 368.542 215.695 368.019 214.667C367.502 213.633 367.243 212.362 367.243 210.854C367.243 209.346 367.499 208.053 368.009 206.976C368.526 205.899 369.234 205.074 370.133 204.501C371.032 203.923 372.05 203.634 373.189 203.634C374.069 203.634 374.78 203.781 375.322 204.077C375.864 204.366 376.285 204.705 376.587 205.092C376.895 205.48 377.132 205.822 377.298 206.117H377.501V203.818H380.206V218.314C380.206 219.533 379.923 220.533 379.357 221.315C378.79 222.096 378.024 222.675 377.058 223.05C376.097 223.426 375.014 223.614 373.808 223.614ZM373.78 215.498C374.574 215.498 375.245 215.313 375.793 214.944C376.347 214.568 376.765 214.033 377.048 213.337C377.338 212.636 377.482 211.795 377.482 210.817C377.482 209.863 377.341 209.022 377.058 208.296C376.775 207.57 376.359 207.004 375.811 206.597C375.263 206.185 374.586 205.979 373.78 205.979C372.949 205.979 372.257 206.194 371.703 206.625C371.149 207.05 370.73 207.628 370.447 208.361C370.17 209.093 370.031 209.912 370.031 210.817C370.031 211.746 370.173 212.562 370.456 213.263C370.739 213.965 371.158 214.513 371.712 214.907C372.272 215.301 372.961 215.498 373.78 215.498ZM387.389 199.091L387.149 212.562H384.592L384.352 199.091H387.389ZM385.875 218.175C385.364 218.175 384.927 217.997 384.564 217.64C384.201 217.277 384.022 216.84 384.029 216.329C384.022 215.824 384.201 215.393 384.564 215.036C384.927 214.673 385.364 214.491 385.875 214.491C386.374 214.491 386.805 214.673 387.168 215.036C387.531 215.393 387.716 215.824 387.722 216.329C387.716 216.667 387.626 216.978 387.454 217.261C387.288 217.538 387.066 217.76 386.789 217.926C386.512 218.092 386.208 218.175 385.875 218.175Z" fill="#2C2C2C"/>
            <path d="M107.423 85.5124C79.5827 71.9582 95.0025 54.1458 110.266 50.1331C119.848 47.614 144.055 40.8589 156.876 50.1329C172.903 61.7254 207.201 -13.2012 260.601 31.1997C290.682 23.9997 304.401 39.5996 290.682 56.821C272.793 79.2764 270.381 80.4518 277.861 88.9233C288.85 91.3012 306.8 102.121 290.682 126.376C270.534 156.695 182.28 174.894 171.8 151.033C164 133.273 171.8 130.736 118.4 130.736C107.423 130.736 90.5682 112.645 107.423 108.917C116.6 106.887 122.6 94.2013 107.423 85.5124Z" fill="#CDE1FF"/>
            <g clip-path="url(#clip0_4349_855)">
            <path d="M242.322 26.9744V99.3604C242.322 101.8 241.353 104.141 239.628 105.866C237.902 107.591 235.562 108.56 233.122 108.56H166.882C164.442 108.56 162.102 107.591 160.376 105.866C158.651 104.141 157.682 101.8 157.682 99.3604V11.0399C157.682 8.59989 158.651 6.25982 160.376 4.53448C162.102 2.80913 164.442 1.83984 166.882 1.83984H217.188C218.241 1.8427 219.282 2.06845 220.242 2.50225V18.3999C220.242 19.8639 220.824 21.268 221.859 22.3032C222.894 23.3384 224.298 23.92 225.762 23.92H241.66C242.094 24.88 242.319 25.9209 242.322 26.9744Z" fill="#E8EDFC"/>
            <path d="M241.659 23.9199H236.139C236.573 24.8799 236.799 25.9209 236.802 26.9743V99.3604C236.802 101.8 235.832 104.14 234.107 105.866C232.382 107.591 230.042 108.56 227.602 108.56H233.122C235.562 108.56 237.902 107.591 239.627 105.866C241.352 104.14 242.322 101.8 242.322 99.3604V26.9743C242.319 25.9209 242.093 24.8799 241.659 23.9199Z" fill="#CAD9FC"/>
            <path d="M241.66 23.9197H225.762C224.298 23.9197 222.894 23.3381 221.859 22.3029C220.824 21.2677 220.242 19.8637 220.242 18.3997V2.50195C221.041 2.86911 221.77 3.37355 222.395 3.99236L240.17 21.7669C240.788 22.3918 241.293 23.1205 241.66 23.9197Z" fill="#C6D8FB"/>
            <path d="M240.17 21.7669L222.395 3.99236C221.77 3.37355 221.041 2.86911 220.242 2.50195V7.35958L234.649 21.7669C235.268 22.3918 235.773 23.1205 236.14 23.9197H241.66C241.293 23.1205 240.788 22.3918 240.17 21.7669Z" fill="#A4C3FD"/>
            <path d="M172.402 1.83984H166.882C164.442 1.83984 162.102 2.80913 160.376 4.53448C158.651 6.25982 157.682 8.59989 157.682 11.0399V99.3604C157.682 101.8 158.651 104.141 160.376 105.866C162.102 107.591 164.442 108.56 166.882 108.56H172.402C169.962 108.56 167.622 107.591 165.896 105.866C164.171 104.141 163.202 101.8 163.202 99.3604V11.0399C163.202 8.59989 164.171 6.25982 165.896 4.53448C167.622 2.80913 169.962 1.83984 172.402 1.83984Z" fill="white"/>
            <path d="M155.842 84.6406H159.522V99.3607H155.842V84.6406Z" fill="white"/>
            <path d="M157.682 93.8402C158.698 93.8402 159.522 93.0164 159.522 92.0002C159.522 90.984 158.698 90.1602 157.682 90.1602C156.666 90.1602 155.842 90.984 155.842 92.0002C155.842 93.0164 156.666 93.8402 157.682 93.8402Z" fill="#428DFF"/>
            <path d="M166.882 110.401H233.122C236.049 110.398 238.856 109.234 240.926 107.164C242.995 105.094 244.159 102.288 244.162 99.3606V26.9691C244.166 25.7606 243.929 24.5635 243.467 23.447C243.005 22.3305 242.325 21.3168 241.469 20.4646L223.698 2.69381C222.846 1.837 221.832 1.15773 220.715 0.695344C219.599 0.232954 218.402 -0.00337561 217.193 3.64254e-05H166.882C163.955 0.00295915 161.148 1.16704 159.079 3.23683C157.009 5.30661 155.845 8.11299 155.842 11.0401V84.6405C155.842 85.1286 156.036 85.5966 156.381 85.9416C156.726 86.2867 157.194 86.4806 157.682 86.4806C158.17 86.4806 158.638 86.2867 158.983 85.9416C159.328 85.5966 159.522 85.1286 159.522 84.6405V11.0401C159.522 9.0881 160.297 7.21604 161.678 5.83577C163.058 4.45549 164.93 3.68006 166.882 3.68006H217.193C217.6 3.68367 218.006 3.73305 218.402 3.82726V18.4001C218.402 20.3522 219.178 22.2242 220.558 23.6045C221.938 24.9848 223.81 25.7602 225.762 25.7602H240.335C240.429 26.1564 240.479 26.5619 240.482 26.9691V99.3606C240.482 101.313 239.707 103.185 238.327 104.565C236.946 105.945 235.074 106.721 233.122 106.721H166.882C164.93 106.721 163.058 105.945 161.678 104.565C160.297 103.185 159.522 101.313 159.522 99.3606C159.522 98.8726 159.328 98.4046 158.983 98.0596C158.638 97.7145 158.17 97.5206 157.682 97.5206C157.194 97.5206 156.726 97.7145 156.381 98.0596C156.036 98.4046 155.842 98.8726 155.842 99.3606C155.845 102.288 157.009 105.094 159.079 107.164C161.148 109.234 163.955 110.398 166.882 110.401ZM222.082 18.4001V6.28184L237.881 22.0802H225.762C224.786 22.0802 223.85 21.6925 223.16 21.0023C222.47 20.3122 222.082 19.3762 222.082 18.4001Z" fill="#428DFF"/>
            <path d="M176.621 58.3418C176.966 58.6867 177.434 58.8805 177.922 58.8805C178.41 58.8805 178.877 58.6867 179.223 58.3418L182.522 55.0426L185.821 58.3418C186.168 58.677 186.633 58.8624 187.115 58.8582C187.598 58.854 188.059 58.6605 188.4 58.3194C188.741 57.9782 188.935 57.5167 188.939 57.0343C188.943 56.5518 188.758 56.087 188.423 55.74L185.123 52.4409L188.423 49.1417C188.758 48.7947 188.943 48.3299 188.939 47.8475C188.935 47.365 188.741 46.9035 188.4 46.5624C188.059 46.2212 187.598 46.0277 187.115 46.0235C186.633 46.0193 186.168 46.2048 185.821 46.54L182.522 49.8391L179.223 46.54C178.876 46.2048 178.411 46.0193 177.928 46.0235C177.446 46.0277 176.984 46.2212 176.643 46.5624C176.302 46.9035 176.109 47.365 176.104 47.8475C176.1 48.3299 176.286 48.7947 176.621 49.1417L179.92 52.4409L176.621 55.74C176.276 56.0851 176.082 56.553 176.082 57.0409C176.082 57.5288 176.276 57.9967 176.621 58.3418Z" fill="#428DFF"/>
            <path d="M211.582 58.3418C211.927 58.6867 212.395 58.8805 212.883 58.8805C213.37 58.8805 213.838 58.6867 214.183 58.3418L217.483 55.0426L220.782 58.3418C221.129 58.677 221.594 58.8624 222.076 58.8582C222.558 58.854 223.02 58.6605 223.361 58.3194C223.702 57.9782 223.896 57.5167 223.9 57.0343C223.904 56.5518 223.719 56.087 223.384 55.74L220.084 52.4409L223.384 49.1417C223.719 48.7947 223.904 48.3299 223.9 47.8475C223.896 47.365 223.702 46.9035 223.361 46.5624C223.02 46.2212 222.558 46.0277 222.076 46.0235C221.594 46.0193 221.129 46.2048 220.782 46.54L217.483 49.8391L214.183 46.54C213.836 46.2048 213.372 46.0193 212.889 46.0235C212.407 46.0277 211.945 46.2212 211.604 46.5624C211.263 46.9035 211.069 47.365 211.065 47.8475C211.061 48.3299 211.247 48.7947 211.582 49.1417L214.881 52.4409L211.582 55.74C211.237 56.0851 211.043 56.553 211.043 57.0409C211.043 57.5288 211.237 57.9967 211.582 58.3418Z" fill="#428DFF"/>
            <path d="M183.441 69.9201C183.441 70.4081 183.635 70.8761 183.98 71.2212C184.325 71.5662 184.793 71.7601 185.281 71.7601H214.722C215.21 71.7601 215.678 71.5662 216.023 71.2212C216.368 70.8761 216.562 70.4081 216.562 69.9201C216.562 69.4321 216.368 68.9641 216.023 68.619C215.678 68.2739 215.21 68.0801 214.722 68.0801H185.281C184.793 68.0801 184.325 68.2739 183.98 68.619C183.635 68.9641 183.441 69.4321 183.441 69.9201Z" fill="#428DFF"/>
            </g>
            <defs>
            <clipPath id="clip0_4349_855">
            <rect width="110.401" height="110.401" fill="white" transform="translate(144.801)"/>
            </clipPath>
            </defs>
        </svg>