<svg width="25" height="24" viewBox="0 0 25 24" fill="none" xmlns="http://www.w3.org/2000/svg">
<path fill-rule="evenodd" clip-rule="evenodd" d="M10.0406 0.892152C9.59487 0.571303 8.96616 0.421252 8.34785 0.647488C7.02198 1.1326 5.80572 1.84284 4.74512 2.73122C4.24114 3.15335 4.05683 3.77189 4.11151 4.3179C4.20261 5.22753 4.04206 6.10581 3.60498 6.86284C3.1677 7.62025 2.48691 8.19863 1.65304 8.57453C1.15188 8.80045 0.707398 9.27064 0.594745 9.91996C0.477489 10.596 0.416504 11.2905 0.416504 11.9983C0.416504 12.706 0.477489 13.4006 0.594757 14.0765C0.70741 14.7259 1.1519 15.196 1.65305 15.422C2.48691 15.7979 3.1677 16.3763 3.60498 17.1337C4.04205 17.8907 4.2026 18.7689 4.11151 19.6786C4.05684 20.2246 4.24116 20.8432 4.74512 21.2652C5.80569 22.1536 7.02192 22.8639 8.34774 23.3489C8.96609 23.5752 9.59482 23.4251 10.0406 23.1042C10.7833 22.5696 11.6249 22.269 12.4998 22.269C13.3748 22.269 14.2164 22.5696 14.9592 23.1042C15.4049 23.4251 16.0336 23.5752 16.6519 23.3489C17.9777 22.8639 19.1939 22.1536 20.2544 21.2654C20.7584 20.8432 20.9427 20.2246 20.8881 19.6786C20.797 18.7689 20.9574 17.8907 21.3945 17.1337C21.8318 16.3763 22.5127 15.7979 23.3466 15.422C23.8478 15.196 24.2923 14.7259 24.4049 14.0765C24.5222 13.4006 24.5832 12.706 24.5832 11.9983C24.5832 11.2906 24.5222 10.5961 24.4049 9.9202C24.2923 9.27082 23.8478 8.80061 23.3466 8.5747C22.5127 8.1988 21.8318 7.6204 21.3945 6.863C20.9574 6.10593 20.797 5.2276 20.8881 4.31791C20.9428 3.77186 20.7584 3.15329 20.2544 2.73114C19.1939 1.84281 17.9777 1.13259 16.6518 0.647488C16.0335 0.421264 15.4048 0.571303 14.959 0.892152C14.2164 1.42674 13.3748 1.72738 12.4998 1.72738C11.6249 1.72738 10.7833 1.42674 10.0406 0.892152ZM8.87484 11.9982C8.87484 9.99608 10.4977 8.37317 12.4998 8.37317C14.5019 8.37317 16.1248 9.99608 16.1248 11.9982C16.1248 14.0003 14.5019 15.6232 12.4998 15.6232C10.4977 15.6232 8.87484 14.0003 8.87484 11.9982Z" fill="#0066D4"/>
</svg>
