<svg width="32" height="32" viewBox="0 0 32 32" fill="none" xmlns="http://www.w3.org/2000/svg">
<circle cx="16" cy="16" r="16" fill="#C9E3FF"/>
<g clip-path="url(#clip0_3509_1217)">
<path d="M14.4012 14.4C16.1685 14.4 17.6012 12.9673 17.6012 11.2C17.6012 9.43269 16.1685 8 14.4012 8C12.6339 8 11.2012 9.43269 11.2012 11.2C11.2012 12.9673 12.6339 14.4 14.4012 14.4Z" fill="#167BE8"/>
<path d="M17.0408 15.84C16.2408 15.44 15.3608 15.2 14.4008 15.2C11.2808 15.2 8.80078 17.68 8.80078 20.8H15.2808C14.8808 18.88 15.9208 16.88 17.0408 15.84Z" fill="#167BE8"/>
<path d="M20.8008 16C18.5608 16 16.8008 17.76 16.8008 20C16.8008 22.24 18.5608 24 20.8008 24C23.0408 24 24.8008 22.24 24.8008 20C24.8008 17.76 23.0408 16 20.8008 16ZM22.5608 19.76L20.9608 21.36C20.6408 21.68 20.1608 21.68 19.8408 21.36L19.0408 20.56C18.7208 20.24 18.7208 19.76 19.0408 19.44C19.3608 19.12 19.8408 19.12 20.1608 19.44L20.4008 19.68L21.4408 18.64C21.7608 18.32 22.2408 18.32 22.5608 18.64C22.8808 18.96 22.8808 19.44 22.5608 19.76Z" fill="#167BE8"/>
</g>
<defs>
<clipPath id="clip0_3509_1217">
<rect width="16" height="16" fill="white" transform="translate(8.80078 8)"/>
</clipPath>
</defs>
</svg>
